<svg xmlns="http://www.w3.org/2000/svg" xmlns:xlink="http://www.w3.org/1999/xlink" width="338" height="812" viewBox="0 0 338 812">
  <defs>
    <style>
      .cls-1 {
        clip-path: url(#clip-Delete);
      }

      .cls-2 {
        fill: #83c6ae;
      }

      .cls-10, .cls-3, .cls-4, .cls-5, .cls-7, .cls-8 {
        fill: none;
      }

      .cls-3, .cls-4, .cls-7 {
        stroke: #fff;
        stroke-width: 1.5px;
      }

      .cls-3, .cls-7 {
        stroke-linecap: round;
      }

      .cls-3 {
        stroke-linejoin: round;
      }

      .cls-5 {
        stroke: #a5dfc9;
      }

      .cls-6 {
        fill: #ffb1b1;
      }

      .cls-8 {
        stroke: #efd0d0;
      }

      .cls-9 {
        stroke: none;
      }
    </style>
    <clipPath id="clip-Delete">
      <rect width="338" height="812"/>
    </clipPath>
  </defs>
  <g id="Delete" class="cls-1">
    <g id="Modal" transform="translate(0 757)">
      <g id="Keep" transform="translate(0 -757)">
        <rect id="Rectangle_1" data-name="Rectangle 1" class="cls-2" width="266" height="55" transform="translate(0 757)"/>
        <g id="ICON_Back" transform="translate(25 774)">
          <g id="Ellipse_9" data-name="Ellipse 9" class="cls-3">
            <circle class="cls-9" cx="11" cy="11" r="11"/>
            <circle class="cls-10" cx="11" cy="11" r="10.25"/>
          </g>
          <g id="Arrow" transform="translate(2841 325)">
            <path id="Path_34" data-name="Path 34" class="cls-4" d="M-2831.127-312.125c5.77-4.013,3.059-7.733-.337-6.312a10.331,10.331,0,0,0-4.744,3.676" transform="translate(2.173 1.469)"/>
            <path id="Path_35" data-name="Path 35" class="cls-3" d="M3.322,0H0V3.321" transform="matrix(-0.105, -0.995, 0.995, -0.105, -2834.5, -312.777)"/>
          </g>
        </g>
        <path id="HRLine" class="cls-5" d="M0,0H266" transform="translate(0 757.5)"/>
      </g>
      <g id="Adieu" transform="translate(335.074 -757)">
        <path id="Path_38" data-name="Path 38" class="cls-6" d="M0,0H72V55H0Z" transform="translate(-69.074 757)"/>
        <g id="ICON_Delete" transform="translate(-44.074 774)">
          <g id="Ellipse_7" data-name="Ellipse 7" class="cls-3">
            <circle class="cls-9" cx="11" cy="11" r="11"/>
            <circle class="cls-10" cx="11" cy="11" r="10.25"/>
          </g>
          <line id="Line_1" data-name="Line 1" class="cls-7" x1="9" transform="translate(7.818 7.818) rotate(45)"/>
          <line id="Line_2" data-name="Line 2" class="cls-7" x2="9" transform="translate(7.818 14.182) rotate(-45)"/>
        </g>
        <path id="HRLine-2" data-name="HRLine" class="cls-8" d="M0,0H71.926" transform="translate(-69 757.5)"/>
      </g>
    </g>
  </g>
</svg>
