<svg xmlns="http://www.w3.org/2000/svg" xmlns:xlink="http://www.w3.org/1999/xlink" width="338" height="1040" viewBox="0 0 338 1040">
  <defs>
    <style>
      .cls-1, .cls-15, .cls-17, .cls-18, .cls-7, .cls-8 {
        fill: none;
      }

      .cls-2 {
        clip-path: url(#clip-EditLists);
      }

      .cls-3 {
        clip-path: url(#clip-path);
      }

      .cls-12, .cls-14, .cls-4, .cls-9 {
        fill: #fff;
      }

      .cls-12, .cls-4 {
        font-size: 20px;
      }

      .cls-12, .cls-4, .cls-5 {
        font-family: SourceSerifPro-Regular, Source Serif Pro;
      }

      .cls-5, .cls-6 {
        fill: #ace3cf;
      }

      .cls-5 {
        font-size: 12px;
      }

      .cls-15, .cls-17, .cls-7, .cls-8 {
        stroke: #fff;
        stroke-linecap: round;
      }

      .cls-17, .cls-7 {
        stroke-linejoin: round;
      }

      .cls-7, .cls-8 {
        stroke-width: 1.5px;
      }

      .cls-9 {
        font-size: 24px;
      }

      .cls-14, .cls-9 {
        font-family: DMSerifDisplay-Regular, DM Serif Display;
      }

      .cls-10 {
        opacity: 0.505;
      }

      .cls-11 {
        fill: #83c6ae;
      }

      .cls-12 {
        letter-spacing: -0.2em;
      }

      .cls-13 {
        font-size: 11.666px;
        baseline-shift: 6.666000209254424;
      }

      .cls-14 {
        font-size: 28px;
      }

      .cls-15 {
        stroke-width: 2.5px;
      }

      .cls-16 {
        opacity: 0;
      }

      .cls-17 {
        stroke-width: 2px;
      }

      .cls-18 {
        stroke: #a5dfc9;
      }

      .cls-19 {
        stroke: none;
      }

      .cls-20 {
        fill: #7c8c9d;
      }
    </style>
    <clipPath id="clip-path">
      <rect class="cls-1" width="338" height="817"/>
    </clipPath>
    <clipPath id="clip-EditLists">
      <rect width="338" height="1040"/>
    </clipPath>
  </defs>
  <g id="EditLists" class="cls-2">
    <rect class="cls-20" width="338" height="1040"/>
    <g id="LIST_PREDEFINED">
      <g id="Repeat_Grid_12" data-name="Repeat Grid 12" class="cls-3" transform="translate(0 129)">
        <g transform="translate(0 -129)">
          <g id="LIST_USER" transform="translate(0 129)">
            <rect id="Rectangle_8" data-name="Rectangle 8" class="cls-1" width="338" height="59"/>
            <g id="Group_10" data-name="Group 10" transform="translate(25.851 -95)">
              <text id="This_is_a_user_list" data-name="This is a user list" class="cls-4" transform="translate(34.149 107)"><tspan x="0" y="18">This is a user list</tspan></text>
              <text id="_19_notos_are_fine" data-name="19 notos are fine" class="cls-5" transform="translate(48.149 128)"><tspan x="0" y="11">19 notos are fine</tspan></text>
              <path id="Path_11" data-name="Path 11" class="cls-6" d="M4,0A4,4,0,1,1,0,4,4,4,0,0,1,4,0Z" transform="translate(35 132)"/>
            </g>
            <g id="ICON_Delete" transform="translate(291 14)">
              <g id="Ellipse_7" data-name="Ellipse 7" class="cls-7">
                <circle class="cls-19" cx="11" cy="11" r="11"/>
                <circle class="cls-1" cx="11" cy="11" r="10.25"/>
              </g>
              <line id="Line_1" data-name="Line 1" class="cls-8" x1="9" transform="translate(7.818 7.818) rotate(45)"/>
              <line id="Line_2" data-name="Line 2" class="cls-8" x2="9" transform="translate(7.818 14.182) rotate(-45)"/>
            </g>
            <g id="ICON_Drag" transform="translate(32.25 20.5)">
              <path id="Path_15" data-name="Path 15" class="cls-7" d="M0,0V7.717" transform="translate(7.717) rotate(90)"/>
              <path id="Path_24" data-name="Path 24" class="cls-7" d="M0,0V7.717" transform="translate(7.717 3.491) rotate(90)"/>
              <path id="Path_26" data-name="Path 26" class="cls-7" d="M0,0V7.717" transform="translate(7.717 6.982) rotate(90)"/>
            </g>
          </g>
        </g>
        <g transform="translate(0 -70)">
          <g id="LIST_USER-2" data-name="LIST_USER" transform="translate(0 129)">
            <rect id="Rectangle_8-2" data-name="Rectangle 8" class="cls-1" width="338" height="59"/>
            <g id="Group_10-2" data-name="Group 10" transform="translate(25.851 -95)">
              <text id="This_is_a_user_list-2" data-name="This is a user list" class="cls-4" transform="translate(34.149 107)"><tspan x="0" y="18">This is a user list</tspan></text>
              <text id="_19_notos_are_fine-2" data-name="19 notos are fine" class="cls-5" transform="translate(48.149 128)"><tspan x="0" y="11">19 notos are fine</tspan></text>
              <path id="Path_11-2" data-name="Path 11" class="cls-6" d="M4,0A4,4,0,1,1,0,4,4,4,0,0,1,4,0Z" transform="translate(35 132)"/>
            </g>
            <g id="ICON_Delete-2" data-name="ICON_Delete" transform="translate(291 14)">
              <g id="Ellipse_7-2" data-name="Ellipse 7" class="cls-7">
                <circle class="cls-19" cx="11" cy="11" r="11"/>
                <circle class="cls-1" cx="11" cy="11" r="10.25"/>
              </g>
              <line id="Line_1-2" data-name="Line 1" class="cls-8" x1="9" transform="translate(7.818 7.818) rotate(45)"/>
              <line id="Line_2-2" data-name="Line 2" class="cls-8" x2="9" transform="translate(7.818 14.182) rotate(-45)"/>
            </g>
            <g id="ICON_Drag-2" data-name="ICON_Drag" transform="translate(32.25 20.5)">
              <path id="Path_15-2" data-name="Path 15" class="cls-7" d="M0,0V7.717" transform="translate(7.717) rotate(90)"/>
              <path id="Path_24-2" data-name="Path 24" class="cls-7" d="M0,0V7.717" transform="translate(7.717 3.491) rotate(90)"/>
              <path id="Path_26-2" data-name="Path 26" class="cls-7" d="M0,0V7.717" transform="translate(7.717 6.982) rotate(90)"/>
            </g>
          </g>
        </g>
        <g transform="translate(0 -11)">
          <g id="LIST_USER-3" data-name="LIST_USER" transform="translate(0 129)">
            <rect id="Rectangle_8-3" data-name="Rectangle 8" class="cls-1" width="338" height="59"/>
            <g id="Group_10-3" data-name="Group 10" transform="translate(25.851 -95)">
              <text id="This_is_a_user_list-3" data-name="This is a user list" class="cls-4" transform="translate(34.149 107)"><tspan x="0" y="18">This is a user list</tspan></text>
              <text id="_19_notos_are_fine-3" data-name="19 notos are fine" class="cls-5" transform="translate(48.149 128)"><tspan x="0" y="11">19 notos are fine</tspan></text>
              <path id="Path_11-3" data-name="Path 11" class="cls-6" d="M4,0A4,4,0,1,1,0,4,4,4,0,0,1,4,0Z" transform="translate(35 132)"/>
            </g>
            <g id="ICON_Delete-3" data-name="ICON_Delete" transform="translate(291 14)">
              <g id="Ellipse_7-3" data-name="Ellipse 7" class="cls-7">
                <circle class="cls-19" cx="11" cy="11" r="11"/>
                <circle class="cls-1" cx="11" cy="11" r="10.25"/>
              </g>
              <line id="Line_1-3" data-name="Line 1" class="cls-8" x1="9" transform="translate(7.818 7.818) rotate(45)"/>
              <line id="Line_2-3" data-name="Line 2" class="cls-8" x2="9" transform="translate(7.818 14.182) rotate(-45)"/>
            </g>
            <g id="ICON_Drag-3" data-name="ICON_Drag" transform="translate(32.25 20.5)">
              <path id="Path_15-3" data-name="Path 15" class="cls-7" d="M0,0V7.717" transform="translate(7.717) rotate(90)"/>
              <path id="Path_24-3" data-name="Path 24" class="cls-7" d="M0,0V7.717" transform="translate(7.717 3.491) rotate(90)"/>
              <path id="Path_26-3" data-name="Path 26" class="cls-7" d="M0,0V7.717" transform="translate(7.717 6.982) rotate(90)"/>
            </g>
          </g>
        </g>
        <g transform="translate(0 48)">
          <g id="LIST_USER-4" data-name="LIST_USER" transform="translate(0 129)">
            <rect id="Rectangle_8-4" data-name="Rectangle 8" class="cls-1" width="338" height="59"/>
            <g id="Group_10-4" data-name="Group 10" transform="translate(25.851 -95)">
              <text id="This_is_a_user_list-4" data-name="This is a user list" class="cls-4" transform="translate(34.149 107)"><tspan x="0" y="18">This is a user list</tspan></text>
              <text id="_19_notos_are_fine-4" data-name="19 notos are fine" class="cls-5" transform="translate(48.149 128)"><tspan x="0" y="11">19 notos are fine</tspan></text>
              <path id="Path_11-4" data-name="Path 11" class="cls-6" d="M4,0A4,4,0,1,1,0,4,4,4,0,0,1,4,0Z" transform="translate(35 132)"/>
            </g>
            <g id="ICON_Delete-4" data-name="ICON_Delete" transform="translate(291 14)">
              <g id="Ellipse_7-4" data-name="Ellipse 7" class="cls-7">
                <circle class="cls-19" cx="11" cy="11" r="11"/>
                <circle class="cls-1" cx="11" cy="11" r="10.25"/>
              </g>
              <line id="Line_1-4" data-name="Line 1" class="cls-8" x1="9" transform="translate(7.818 7.818) rotate(45)"/>
              <line id="Line_2-4" data-name="Line 2" class="cls-8" x2="9" transform="translate(7.818 14.182) rotate(-45)"/>
            </g>
            <g id="ICON_Drag-4" data-name="ICON_Drag" transform="translate(32.25 20.5)">
              <path id="Path_15-4" data-name="Path 15" class="cls-7" d="M0,0V7.717" transform="translate(7.717) rotate(90)"/>
              <path id="Path_24-4" data-name="Path 24" class="cls-7" d="M0,0V7.717" transform="translate(7.717 3.491) rotate(90)"/>
              <path id="Path_26-4" data-name="Path 26" class="cls-7" d="M0,0V7.717" transform="translate(7.717 6.982) rotate(90)"/>
            </g>
          </g>
        </g>
        <g transform="translate(0 107)">
          <g id="LIST_USER-5" data-name="LIST_USER" transform="translate(0 129)">
            <rect id="Rectangle_8-5" data-name="Rectangle 8" class="cls-1" width="338" height="59"/>
            <g id="Group_10-5" data-name="Group 10" transform="translate(25.851 -95)">
              <text id="This_is_a_user_list-5" data-name="This is a user list" class="cls-4" transform="translate(34.149 107)"><tspan x="0" y="18">This is a user list</tspan></text>
              <text id="_19_notos_are_fine-5" data-name="19 notos are fine" class="cls-5" transform="translate(48.149 128)"><tspan x="0" y="11">19 notos are fine</tspan></text>
              <path id="Path_11-5" data-name="Path 11" class="cls-6" d="M4,0A4,4,0,1,1,0,4,4,4,0,0,1,4,0Z" transform="translate(35 132)"/>
            </g>
            <g id="ICON_Delete-5" data-name="ICON_Delete" transform="translate(291 14)">
              <g id="Ellipse_7-5" data-name="Ellipse 7" class="cls-7">
                <circle class="cls-19" cx="11" cy="11" r="11"/>
                <circle class="cls-1" cx="11" cy="11" r="10.25"/>
              </g>
              <line id="Line_1-5" data-name="Line 1" class="cls-8" x1="9" transform="translate(7.818 7.818) rotate(45)"/>
              <line id="Line_2-5" data-name="Line 2" class="cls-8" x2="9" transform="translate(7.818 14.182) rotate(-45)"/>
            </g>
            <g id="ICON_Drag-5" data-name="ICON_Drag" transform="translate(32.25 20.5)">
              <path id="Path_15-5" data-name="Path 15" class="cls-7" d="M0,0V7.717" transform="translate(7.717) rotate(90)"/>
              <path id="Path_24-5" data-name="Path 24" class="cls-7" d="M0,0V7.717" transform="translate(7.717 3.491) rotate(90)"/>
              <path id="Path_26-5" data-name="Path 26" class="cls-7" d="M0,0V7.717" transform="translate(7.717 6.982) rotate(90)"/>
            </g>
          </g>
        </g>
        <g transform="translate(0 166)">
          <g id="LIST_USER-6" data-name="LIST_USER" transform="translate(0 129)">
            <rect id="Rectangle_8-6" data-name="Rectangle 8" class="cls-1" width="338" height="59"/>
            <g id="Group_10-6" data-name="Group 10" transform="translate(25.851 -95)">
              <text id="This_is_a_user_list-6" data-name="This is a user list" class="cls-4" transform="translate(34.149 107)"><tspan x="0" y="18">This is a user list</tspan></text>
              <text id="_19_notos_are_fine-6" data-name="19 notos are fine" class="cls-5" transform="translate(48.149 128)"><tspan x="0" y="11">19 notos are fine</tspan></text>
              <path id="Path_11-6" data-name="Path 11" class="cls-6" d="M4,0A4,4,0,1,1,0,4,4,4,0,0,1,4,0Z" transform="translate(35 132)"/>
            </g>
            <g id="ICON_Delete-6" data-name="ICON_Delete" transform="translate(291 14)">
              <g id="Ellipse_7-6" data-name="Ellipse 7" class="cls-7">
                <circle class="cls-19" cx="11" cy="11" r="11"/>
                <circle class="cls-1" cx="11" cy="11" r="10.25"/>
              </g>
              <line id="Line_1-6" data-name="Line 1" class="cls-8" x1="9" transform="translate(7.818 7.818) rotate(45)"/>
              <line id="Line_2-6" data-name="Line 2" class="cls-8" x2="9" transform="translate(7.818 14.182) rotate(-45)"/>
            </g>
            <g id="ICON_Drag-6" data-name="ICON_Drag" transform="translate(32.25 20.5)">
              <path id="Path_15-6" data-name="Path 15" class="cls-7" d="M0,0V7.717" transform="translate(7.717) rotate(90)"/>
              <path id="Path_24-6" data-name="Path 24" class="cls-7" d="M0,0V7.717" transform="translate(7.717 3.491) rotate(90)"/>
              <path id="Path_26-6" data-name="Path 26" class="cls-7" d="M0,0V7.717" transform="translate(7.717 6.982) rotate(90)"/>
            </g>
          </g>
        </g>
        <g transform="translate(0 225)">
          <g id="LIST_USER-7" data-name="LIST_USER" transform="translate(0 129)">
            <rect id="Rectangle_8-7" data-name="Rectangle 8" class="cls-1" width="338" height="59"/>
            <g id="Group_10-7" data-name="Group 10" transform="translate(25.851 -95)">
              <text id="This_is_a_user_list-7" data-name="This is a user list" class="cls-4" transform="translate(34.149 107)"><tspan x="0" y="18">This is a user list</tspan></text>
              <text id="_19_notos_are_fine-7" data-name="19 notos are fine" class="cls-5" transform="translate(48.149 128)"><tspan x="0" y="11">19 notos are fine</tspan></text>
              <path id="Path_11-7" data-name="Path 11" class="cls-6" d="M4,0A4,4,0,1,1,0,4,4,4,0,0,1,4,0Z" transform="translate(35 132)"/>
            </g>
            <g id="ICON_Delete-7" data-name="ICON_Delete" transform="translate(291 14)">
              <g id="Ellipse_7-7" data-name="Ellipse 7" class="cls-7">
                <circle class="cls-19" cx="11" cy="11" r="11"/>
                <circle class="cls-1" cx="11" cy="11" r="10.25"/>
              </g>
              <line id="Line_1-7" data-name="Line 1" class="cls-8" x1="9" transform="translate(7.818 7.818) rotate(45)"/>
              <line id="Line_2-7" data-name="Line 2" class="cls-8" x2="9" transform="translate(7.818 14.182) rotate(-45)"/>
            </g>
            <g id="ICON_Drag-7" data-name="ICON_Drag" transform="translate(32.25 20.5)">
              <path id="Path_15-7" data-name="Path 15" class="cls-7" d="M0,0V7.717" transform="translate(7.717) rotate(90)"/>
              <path id="Path_24-7" data-name="Path 24" class="cls-7" d="M0,0V7.717" transform="translate(7.717 3.491) rotate(90)"/>
              <path id="Path_26-7" data-name="Path 26" class="cls-7" d="M0,0V7.717" transform="translate(7.717 6.982) rotate(90)"/>
            </g>
          </g>
        </g>
        <g transform="translate(0 284)">
          <g id="LIST_USER-8" data-name="LIST_USER" transform="translate(0 129)">
            <rect id="Rectangle_8-8" data-name="Rectangle 8" class="cls-1" width="338" height="59"/>
            <g id="Group_10-8" data-name="Group 10" transform="translate(25.851 -95)">
              <text id="This_is_a_user_list-8" data-name="This is a user list" class="cls-4" transform="translate(34.149 107)"><tspan x="0" y="18">This is a user list</tspan></text>
              <text id="_19_notos_are_fine-8" data-name="19 notos are fine" class="cls-5" transform="translate(48.149 128)"><tspan x="0" y="11">19 notos are fine</tspan></text>
              <path id="Path_11-8" data-name="Path 11" class="cls-6" d="M4,0A4,4,0,1,1,0,4,4,4,0,0,1,4,0Z" transform="translate(35 132)"/>
            </g>
            <g id="ICON_Delete-8" data-name="ICON_Delete" transform="translate(291 14)">
              <g id="Ellipse_7-8" data-name="Ellipse 7" class="cls-7">
                <circle class="cls-19" cx="11" cy="11" r="11"/>
                <circle class="cls-1" cx="11" cy="11" r="10.25"/>
              </g>
              <line id="Line_1-8" data-name="Line 1" class="cls-8" x1="9" transform="translate(7.818 7.818) rotate(45)"/>
              <line id="Line_2-8" data-name="Line 2" class="cls-8" x2="9" transform="translate(7.818 14.182) rotate(-45)"/>
            </g>
            <g id="ICON_Drag-8" data-name="ICON_Drag" transform="translate(32.25 20.5)">
              <path id="Path_15-8" data-name="Path 15" class="cls-7" d="M0,0V7.717" transform="translate(7.717) rotate(90)"/>
              <path id="Path_24-8" data-name="Path 24" class="cls-7" d="M0,0V7.717" transform="translate(7.717 3.491) rotate(90)"/>
              <path id="Path_26-8" data-name="Path 26" class="cls-7" d="M0,0V7.717" transform="translate(7.717 6.982) rotate(90)"/>
            </g>
          </g>
        </g>
        <g transform="translate(0 343)">
          <g id="LIST_USER-9" data-name="LIST_USER" transform="translate(0 129)">
            <rect id="Rectangle_8-9" data-name="Rectangle 8" class="cls-1" width="338" height="59"/>
            <g id="Group_10-9" data-name="Group 10" transform="translate(25.851 -95)">
              <text id="This_is_a_user_list-9" data-name="This is a user list" class="cls-4" transform="translate(34.149 107)"><tspan x="0" y="18">This is a user list</tspan></text>
              <text id="_19_notos_are_fine-9" data-name="19 notos are fine" class="cls-5" transform="translate(48.149 128)"><tspan x="0" y="11">19 notos are fine</tspan></text>
              <path id="Path_11-9" data-name="Path 11" class="cls-6" d="M4,0A4,4,0,1,1,0,4,4,4,0,0,1,4,0Z" transform="translate(35 132)"/>
            </g>
            <g id="ICON_Delete-9" data-name="ICON_Delete" transform="translate(291 14)">
              <g id="Ellipse_7-9" data-name="Ellipse 7" class="cls-7">
                <circle class="cls-19" cx="11" cy="11" r="11"/>
                <circle class="cls-1" cx="11" cy="11" r="10.25"/>
              </g>
              <line id="Line_1-9" data-name="Line 1" class="cls-8" x1="9" transform="translate(7.818 7.818) rotate(45)"/>
              <line id="Line_2-9" data-name="Line 2" class="cls-8" x2="9" transform="translate(7.818 14.182) rotate(-45)"/>
            </g>
            <g id="ICON_Drag-9" data-name="ICON_Drag" transform="translate(32.25 20.5)">
              <path id="Path_15-9" data-name="Path 15" class="cls-7" d="M0,0V7.717" transform="translate(7.717) rotate(90)"/>
              <path id="Path_24-9" data-name="Path 24" class="cls-7" d="M0,0V7.717" transform="translate(7.717 3.491) rotate(90)"/>
              <path id="Path_26-9" data-name="Path 26" class="cls-7" d="M0,0V7.717" transform="translate(7.717 6.982) rotate(90)"/>
            </g>
          </g>
        </g>
        <g transform="translate(0 402)">
          <g id="LIST_USER-10" data-name="LIST_USER" transform="translate(0 129)">
            <rect id="Rectangle_8-10" data-name="Rectangle 8" class="cls-1" width="338" height="59"/>
            <g id="Group_10-10" data-name="Group 10" transform="translate(25.851 -95)">
              <text id="This_is_a_user_list-10" data-name="This is a user list" class="cls-4" transform="translate(34.149 107)"><tspan x="0" y="18">This is a user list</tspan></text>
              <text id="_19_notos_are_fine-10" data-name="19 notos are fine" class="cls-5" transform="translate(48.149 128)"><tspan x="0" y="11">19 notos are fine</tspan></text>
              <path id="Path_11-10" data-name="Path 11" class="cls-6" d="M4,0A4,4,0,1,1,0,4,4,4,0,0,1,4,0Z" transform="translate(35 132)"/>
            </g>
            <g id="ICON_Delete-10" data-name="ICON_Delete" transform="translate(291 14)">
              <g id="Ellipse_7-10" data-name="Ellipse 7" class="cls-7">
                <circle class="cls-19" cx="11" cy="11" r="11"/>
                <circle class="cls-1" cx="11" cy="11" r="10.25"/>
              </g>
              <line id="Line_1-10" data-name="Line 1" class="cls-8" x1="9" transform="translate(7.818 7.818) rotate(45)"/>
              <line id="Line_2-10" data-name="Line 2" class="cls-8" x2="9" transform="translate(7.818 14.182) rotate(-45)"/>
            </g>
            <g id="ICON_Drag-10" data-name="ICON_Drag" transform="translate(32.25 20.5)">
              <path id="Path_15-10" data-name="Path 15" class="cls-7" d="M0,0V7.717" transform="translate(7.717) rotate(90)"/>
              <path id="Path_24-10" data-name="Path 24" class="cls-7" d="M0,0V7.717" transform="translate(7.717 3.491) rotate(90)"/>
              <path id="Path_26-10" data-name="Path 26" class="cls-7" d="M0,0V7.717" transform="translate(7.717 6.982) rotate(90)"/>
            </g>
          </g>
        </g>
        <g transform="translate(0 461)">
          <g id="LIST_USER-11" data-name="LIST_USER" transform="translate(0 129)">
            <rect id="Rectangle_8-11" data-name="Rectangle 8" class="cls-1" width="338" height="59"/>
            <g id="Group_10-11" data-name="Group 10" transform="translate(25.851 -95)">
              <text id="This_is_a_user_list-11" data-name="This is a user list" class="cls-4" transform="translate(34.149 107)"><tspan x="0" y="18">This is a user list</tspan></text>
              <text id="_19_notos_are_fine-11" data-name="19 notos are fine" class="cls-5" transform="translate(48.149 128)"><tspan x="0" y="11">19 notos are fine</tspan></text>
              <path id="Path_11-11" data-name="Path 11" class="cls-6" d="M4,0A4,4,0,1,1,0,4,4,4,0,0,1,4,0Z" transform="translate(35 132)"/>
            </g>
            <g id="ICON_Delete-11" data-name="ICON_Delete" transform="translate(291 14)">
              <g id="Ellipse_7-11" data-name="Ellipse 7" class="cls-7">
                <circle class="cls-19" cx="11" cy="11" r="11"/>
                <circle class="cls-1" cx="11" cy="11" r="10.25"/>
              </g>
              <line id="Line_1-11" data-name="Line 1" class="cls-8" x1="9" transform="translate(7.818 7.818) rotate(45)"/>
              <line id="Line_2-11" data-name="Line 2" class="cls-8" x2="9" transform="translate(7.818 14.182) rotate(-45)"/>
            </g>
            <g id="ICON_Drag-11" data-name="ICON_Drag" transform="translate(32.25 20.5)">
              <path id="Path_15-11" data-name="Path 15" class="cls-7" d="M0,0V7.717" transform="translate(7.717) rotate(90)"/>
              <path id="Path_24-11" data-name="Path 24" class="cls-7" d="M0,0V7.717" transform="translate(7.717 3.491) rotate(90)"/>
              <path id="Path_26-11" data-name="Path 26" class="cls-7" d="M0,0V7.717" transform="translate(7.717 6.982) rotate(90)"/>
            </g>
          </g>
        </g>
        <g transform="translate(0 520)">
          <g id="LIST_USER-12" data-name="LIST_USER" transform="translate(0 129)">
            <rect id="Rectangle_8-12" data-name="Rectangle 8" class="cls-1" width="338" height="59"/>
            <g id="Group_10-12" data-name="Group 10" transform="translate(25.851 -95)">
              <text id="This_is_a_user_list-12" data-name="This is a user list" class="cls-4" transform="translate(34.149 107)"><tspan x="0" y="18">This is a user list</tspan></text>
              <text id="_19_notos_are_fine-12" data-name="19 notos are fine" class="cls-5" transform="translate(48.149 128)"><tspan x="0" y="11">19 notos are fine</tspan></text>
              <path id="Path_11-12" data-name="Path 11" class="cls-6" d="M4,0A4,4,0,1,1,0,4,4,4,0,0,1,4,0Z" transform="translate(35 132)"/>
            </g>
            <g id="ICON_Delete-12" data-name="ICON_Delete" transform="translate(291 14)">
              <g id="Ellipse_7-12" data-name="Ellipse 7" class="cls-7">
                <circle class="cls-19" cx="11" cy="11" r="11"/>
                <circle class="cls-1" cx="11" cy="11" r="10.25"/>
              </g>
              <line id="Line_1-12" data-name="Line 1" class="cls-8" x1="9" transform="translate(7.818 7.818) rotate(45)"/>
              <line id="Line_2-12" data-name="Line 2" class="cls-8" x2="9" transform="translate(7.818 14.182) rotate(-45)"/>
            </g>
            <g id="ICON_Drag-12" data-name="ICON_Drag" transform="translate(32.25 20.5)">
              <path id="Path_15-12" data-name="Path 15" class="cls-7" d="M0,0V7.717" transform="translate(7.717) rotate(90)"/>
              <path id="Path_24-12" data-name="Path 24" class="cls-7" d="M0,0V7.717" transform="translate(7.717 3.491) rotate(90)"/>
              <path id="Path_26-12" data-name="Path 26" class="cls-7" d="M0,0V7.717" transform="translate(7.717 6.982) rotate(90)"/>
            </g>
          </g>
        </g>
        <g transform="translate(0 579)">
          <g id="LIST_USER-13" data-name="LIST_USER" transform="translate(0 129)">
            <rect id="Rectangle_8-13" data-name="Rectangle 8" class="cls-1" width="338" height="59"/>
            <g id="Group_10-13" data-name="Group 10" transform="translate(25.851 -95)">
              <text id="This_is_a_user_list-13" data-name="This is a user list" class="cls-4" transform="translate(34.149 107)"><tspan x="0" y="18">This is a user list</tspan></text>
              <text id="_19_notos_are_fine-13" data-name="19 notos are fine" class="cls-5" transform="translate(48.149 128)"><tspan x="0" y="11">19 notos are fine</tspan></text>
              <path id="Path_11-13" data-name="Path 11" class="cls-6" d="M4,0A4,4,0,1,1,0,4,4,4,0,0,1,4,0Z" transform="translate(35 132)"/>
            </g>
            <g id="ICON_Delete-13" data-name="ICON_Delete" transform="translate(291 14)">
              <g id="Ellipse_7-13" data-name="Ellipse 7" class="cls-7">
                <circle class="cls-19" cx="11" cy="11" r="11"/>
                <circle class="cls-1" cx="11" cy="11" r="10.25"/>
              </g>
              <line id="Line_1-13" data-name="Line 1" class="cls-8" x1="9" transform="translate(7.818 7.818) rotate(45)"/>
              <line id="Line_2-13" data-name="Line 2" class="cls-8" x2="9" transform="translate(7.818 14.182) rotate(-45)"/>
            </g>
            <g id="ICON_Drag-13" data-name="ICON_Drag" transform="translate(32.25 20.5)">
              <path id="Path_15-13" data-name="Path 15" class="cls-7" d="M0,0V7.717" transform="translate(7.717) rotate(90)"/>
              <path id="Path_24-13" data-name="Path 24" class="cls-7" d="M0,0V7.717" transform="translate(7.717 3.491) rotate(90)"/>
              <path id="Path_26-13" data-name="Path 26" class="cls-7" d="M0,0V7.717" transform="translate(7.717 6.982) rotate(90)"/>
            </g>
          </g>
        </g>
        <g transform="translate(0 638)">
          <g id="LIST_USER-14" data-name="LIST_USER" transform="translate(0 129)">
            <rect id="Rectangle_8-14" data-name="Rectangle 8" class="cls-1" width="338" height="59"/>
            <g id="Group_10-14" data-name="Group 10" transform="translate(25.851 -95)">
              <text id="This_is_a_user_list-14" data-name="This is a user list" class="cls-4" transform="translate(34.149 107)"><tspan x="0" y="18">This is a user list</tspan></text>
              <text id="_19_notos_are_fine-14" data-name="19 notos are fine" class="cls-5" transform="translate(48.149 128)"><tspan x="0" y="11">19 notos are fine</tspan></text>
              <path id="Path_11-14" data-name="Path 11" class="cls-6" d="M4,0A4,4,0,1,1,0,4,4,4,0,0,1,4,0Z" transform="translate(35 132)"/>
            </g>
            <g id="ICON_Delete-14" data-name="ICON_Delete" transform="translate(291 14)">
              <g id="Ellipse_7-14" data-name="Ellipse 7" class="cls-7">
                <circle class="cls-19" cx="11" cy="11" r="11"/>
                <circle class="cls-1" cx="11" cy="11" r="10.25"/>
              </g>
              <line id="Line_1-14" data-name="Line 1" class="cls-8" x1="9" transform="translate(7.818 7.818) rotate(45)"/>
              <line id="Line_2-14" data-name="Line 2" class="cls-8" x2="9" transform="translate(7.818 14.182) rotate(-45)"/>
            </g>
            <g id="ICON_Drag-14" data-name="ICON_Drag" transform="translate(32.25 20.5)">
              <path id="Path_15-14" data-name="Path 15" class="cls-7" d="M0,0V7.717" transform="translate(7.717) rotate(90)"/>
              <path id="Path_24-14" data-name="Path 24" class="cls-7" d="M0,0V7.717" transform="translate(7.717 3.491) rotate(90)"/>
              <path id="Path_26-14" data-name="Path 26" class="cls-7" d="M0,0V7.717" transform="translate(7.717 6.982) rotate(90)"/>
            </g>
          </g>
        </g>
      </g>
      <text id="Lists" class="cls-9" transform="translate(31 93)"><tspan x="0" y="25">Lists</tspan></text>
    </g>
    <g id="Header" class="cls-10">
      <rect id="Rectangle_6" data-name="Rectangle 6" class="cls-1" width="338" height="78"/>
      <g id="Logo" transform="translate(25 26.5)">
        <rect id="Rectangle_7" data-name="Rectangle 7" class="cls-11" width="24" height="24"/>
        <text id="N_t" data-name="N     t" class="cls-12" transform="translate(3 18.5)"><tspan x="0" y="0" xml:space="preserve">N     </tspan><tspan class="cls-13" y="0">t</tspan></text>
      </g>
      <text id="Make_it_so" data-name="Make it so" class="cls-14" transform="translate(60 50)"><tspan x="0" y="0">Make it so</tspan></text>
      <g id="ICON_Settings2" transform="translate(291 29)">
        <g id="Ellipse_7-15" data-name="Ellipse 7" class="cls-7">
          <circle class="cls-19" cx="11" cy="11" r="11"/>
          <circle class="cls-1" cx="11" cy="11" r="10.25"/>
        </g>
        <g id="Symbol" transform="translate(-27.813 -775.751)">
          <path id="Path_15-15" data-name="Path 15" class="cls-7" d="M0,4.833V8.788" transform="translate(44.101 782.751) rotate(90)"/>
          <path id="Path_24-15" data-name="Path 24" class="cls-7" d="M0,0V.74" transform="translate(36.052 790.752) rotate(90)"/>
          <path id="Path_26-15" data-name="Path 26" class="cls-7" d="M0,0V3.987" transform="translate(42.413 786.733) rotate(90)"/>
          <path id="Path_28" data-name="Path 28" class="cls-15" d="M42.117,782.751h0" transform="translate(-0.194)"/>
          <path id="Path_29" data-name="Path 29" class="cls-15" d="M42.117,782.751h0" transform="translate(-3.354 8)"/>
          <path id="Path_30" data-name="Path 30" class="cls-7" d="M0,0V.963" transform="translate(42.413 790.752) rotate(90)"/>
          <path id="Path_31" data-name="Path 31" class="cls-15" d="M42.117,782.751h0" transform="translate(-6.354 3.98)"/>
        </g>
      </g>
      <g id="ICON_Arrow" class="cls-16" transform="translate(24.017 30.822)">
        <rect id="Rectangle_22" data-name="Rectangle 22" class="cls-1" width="22" height="21"/>
        <path id="Path_37" data-name="Path 37" class="cls-17" d="M42.622,36.178l-5.965,5.965,5.965,5.965" transform="translate(-28.675 -32.001)"/>
      </g>
    </g>
    <g id="Bottom" transform="translate(0 757)">
      <path id="Path_36" data-name="Path 36" class="cls-11" d="M0,0H338V55H0Z"/>
      <g id="ICON_Check" transform="translate(291 17)">
        <g id="Ellipse_7-16" data-name="Ellipse 7" class="cls-7">
          <circle class="cls-19" cx="11" cy="11" r="11"/>
          <circle class="cls-1" cx="11" cy="11" r="10.25"/>
        </g>
        <g id="Group_14" data-name="Group 14" transform="translate(-25 -772.8)">
          <path id="Path_16" data-name="Path 16" class="cls-8" d="M4.1,4.556,0,0" transform="translate(31.5 784.048)"/>
          <line id="Line_2-15" data-name="Line 2" class="cls-8" x1="4.135" y2="9.096" transform="translate(35.635 779.5)"/>
        </g>
      </g>
      <path id="HRLine" class="cls-18" d="M0,0H338" transform="translate(0 0.5)"/>
      <g id="ICON_Plus" transform="translate(25 17)">
        <g id="Ellipse_7-17" data-name="Ellipse 7" class="cls-7">
          <circle class="cls-19" cx="11" cy="11" r="11"/>
          <circle class="cls-1" cx="11" cy="11" r="10.25"/>
        </g>
        <line id="Line_1-15" data-name="Line 1" class="cls-8" x1="9" transform="translate(6.5 11)"/>
        <line id="Line_2-16" data-name="Line 2" class="cls-8" x2="9" transform="translate(11 6.5) rotate(90)"/>
      </g>
    </g>
  </g>
</svg>
