<svg xmlns="http://www.w3.org/2000/svg" xmlns:xlink="http://www.w3.org/1999/xlink" width="338" height="1054" viewBox="0 0 338 1054">
  <defs>
    <style>
      .cls-1, .cls-10, .cls-18, .cls-19, .cls-20, .cls-8, .cls-9 {
        fill: none;
      }

      .cls-2 {
        clip-path: url(#clip-EditListview);
      }

      .cls-16, .cls-3, .cls-5 {
        fill: #4b6a8a;
      }

      .cls-3 {
        font-size: 24px;
      }

      .cls-16, .cls-3 {
        font-family: DMSerifDisplay-Regular, DM Serif Display;
      }

      .cls-4 {
        clip-path: url(#clip-path);
      }

      .cls-5 {
        font-size: 20px;
      }

      .cls-5, .cls-6 {
        font-family: SourceSerifPro-Regular, Source Serif Pro;
      }

      .cls-17, .cls-6 {
        fill: #83c6ae;
      }

      .cls-6 {
        font-size: 12px;
      }

      .cls-7 {
        opacity: 0;
      }

      .cls-10, .cls-8, .cls-9 {
        stroke: #445f7d;
      }

      .cls-10, .cls-18, .cls-19, .cls-8, .cls-9 {
        stroke-linecap: round;
      }

      .cls-18, .cls-8, .cls-9 {
        stroke-linejoin: round;
      }

      .cls-8 {
        stroke-width: 2px;
      }

      .cls-10, .cls-18, .cls-19, .cls-9 {
        stroke-width: 1.5px;
      }

      .cls-11 {
        clip-path: url(#clip-path-2);
      }

      .cls-12 {
        clip-path: url(#clip-path-3);
      }

      .cls-13 {
        clip-path: url(#clip-path-4);
      }

      .cls-14 {
        opacity: 0.498;
      }

      .cls-15 {
        fill: #eef1f5;
      }

      .cls-16 {
        font-size: 28px;
      }

      .cls-18, .cls-19 {
        stroke: #fff;
      }

      .cls-20 {
        stroke: #a5dfc9;
      }

      .cls-21 {
        stroke: none;
      }
    </style>
    <clipPath id="clip-path">
      <rect class="cls-1" width="338" height="178"/>
    </clipPath>
    <clipPath id="clip-path-2">
      <rect class="cls-1" width="338" height="118"/>
    </clipPath>
    <clipPath id="clip-path-3">
      <rect class="cls-1" width="338" height="175"/>
    </clipPath>
    <clipPath id="clip-path-4">
      <rect class="cls-1" width="338" height="185"/>
    </clipPath>
    <clipPath id="clip-EditListview">
      <rect width="338" height="1054"/>
    </clipPath>
  </defs>
  <g id="EditListview" class="cls-2">
    <rect class="cls-15" width="338" height="1054"/>
    <g id="ListTasks">
      <text id="Today" class="cls-3" transform="translate(60 93)"><tspan x="0" y="25">Today</tspan></text>
      <g id="Repeat_Grid_6" data-name="Repeat Grid 6" class="cls-4" transform="translate(0 129)">
        <g transform="translate(0 -129)">
          <g id="ListItem" transform="translate(0 129)">
            <rect id="Rectangle_4" data-name="Rectangle 4" class="cls-1" width="338" height="59"/>
            <g id="Text">
              <text id="This_is_a_simple_noto" data-name="This is a simple noto" class="cls-5" transform="translate(60 12)"><tspan x="0" y="18">This is a simple noto</tspan></text>
              <text id="_dennis_tag1_tag2" data-name="@dennis #tag1 #tag2" class="cls-6" transform="translate(60 33)"><tspan x="0" y="11">@dennis #tag1 #tag2</tspan></text>
            </g>
            <g id="ICON_Arrow" class="cls-7" transform="translate(314.148 34.607) rotate(180)">
              <rect id="Rectangle_22" data-name="Rectangle 22" class="cls-1" width="22" height="21"/>
              <path id="Path_37" data-name="Path 37" class="cls-8" d="M42.622,36.178l-5.965,5.965,5.965,5.965" transform="translate(-28.675 -32.001)"/>
            </g>
            <g id="ICON_Drag" transform="translate(31.25 20.5)">
              <path id="Path_15" data-name="Path 15" class="cls-9" d="M0,0V7.717" transform="translate(7.717) rotate(90)"/>
              <path id="Path_24" data-name="Path 24" class="cls-9" d="M0,0V7.717" transform="translate(7.717 3.491) rotate(90)"/>
              <path id="Path_26" data-name="Path 26" class="cls-9" d="M0,0V7.717" transform="translate(7.717 6.982) rotate(90)"/>
            </g>
            <g id="ICON_Delete" transform="translate(292 15)">
              <g id="Ellipse_7" data-name="Ellipse 7" class="cls-9">
                <circle class="cls-21" cx="11" cy="11" r="11"/>
                <circle class="cls-1" cx="11" cy="11" r="10.25"/>
              </g>
              <line id="Line_1" data-name="Line 1" class="cls-10" x1="9" transform="translate(7.818 7.818) rotate(45)"/>
              <line id="Line_2" data-name="Line 2" class="cls-10" x2="9" transform="translate(7.818 14.182) rotate(-45)"/>
            </g>
          </g>
        </g>
        <g transform="translate(0 -70)">
          <g id="ListItem-2" data-name="ListItem" transform="translate(0 129)">
            <rect id="Rectangle_4-2" data-name="Rectangle 4" class="cls-1" width="338" height="59"/>
            <g id="Text-2" data-name="Text">
              <text id="This_is_a_simple_noto-2" data-name="This is a simple noto" class="cls-5" transform="translate(60 12)"><tspan x="0" y="18">This is a simple noto</tspan></text>
              <text id="_dennis_tag1_tag2-2" data-name="@dennis #tag1 #tag2" class="cls-6" transform="translate(60 33)"><tspan x="0" y="11">@dennis #tag1 #tag2</tspan></text>
            </g>
            <g id="ICON_Arrow-2" data-name="ICON_Arrow" class="cls-7" transform="translate(314.148 34.607) rotate(180)">
              <rect id="Rectangle_22-2" data-name="Rectangle 22" class="cls-1" width="22" height="21"/>
              <path id="Path_37-2" data-name="Path 37" class="cls-8" d="M42.622,36.178l-5.965,5.965,5.965,5.965" transform="translate(-28.675 -32.001)"/>
            </g>
            <g id="ICON_Drag-2" data-name="ICON_Drag" transform="translate(31.25 20.5)">
              <path id="Path_15-2" data-name="Path 15" class="cls-9" d="M0,0V7.717" transform="translate(7.717) rotate(90)"/>
              <path id="Path_24-2" data-name="Path 24" class="cls-9" d="M0,0V7.717" transform="translate(7.717 3.491) rotate(90)"/>
              <path id="Path_26-2" data-name="Path 26" class="cls-9" d="M0,0V7.717" transform="translate(7.717 6.982) rotate(90)"/>
            </g>
            <g id="ICON_Delete-2" data-name="ICON_Delete" transform="translate(292 15)">
              <g id="Ellipse_7-2" data-name="Ellipse 7" class="cls-9">
                <circle class="cls-21" cx="11" cy="11" r="11"/>
                <circle class="cls-1" cx="11" cy="11" r="10.25"/>
              </g>
              <line id="Line_1-2" data-name="Line 1" class="cls-10" x1="9" transform="translate(7.818 7.818) rotate(45)"/>
              <line id="Line_2-2" data-name="Line 2" class="cls-10" x2="9" transform="translate(7.818 14.182) rotate(-45)"/>
            </g>
          </g>
        </g>
        <g transform="translate(0 -11)">
          <g id="ListItem-3" data-name="ListItem" transform="translate(0 129)">
            <rect id="Rectangle_4-3" data-name="Rectangle 4" class="cls-1" width="338" height="59"/>
            <g id="Text-3" data-name="Text">
              <text id="This_is_a_simple_noto-3" data-name="This is a simple noto" class="cls-5" transform="translate(60 12)"><tspan x="0" y="18">This is a simple noto</tspan></text>
              <text id="_dennis_tag1_tag2-3" data-name="@dennis #tag1 #tag2" class="cls-6" transform="translate(60 33)"><tspan x="0" y="11">@dennis #tag1 #tag2</tspan></text>
            </g>
            <g id="ICON_Arrow-3" data-name="ICON_Arrow" class="cls-7" transform="translate(314.148 34.607) rotate(180)">
              <rect id="Rectangle_22-3" data-name="Rectangle 22" class="cls-1" width="22" height="21"/>
              <path id="Path_37-3" data-name="Path 37" class="cls-8" d="M42.622,36.178l-5.965,5.965,5.965,5.965" transform="translate(-28.675 -32.001)"/>
            </g>
            <g id="ICON_Drag-3" data-name="ICON_Drag" transform="translate(31.25 20.5)">
              <path id="Path_15-3" data-name="Path 15" class="cls-9" d="M0,0V7.717" transform="translate(7.717) rotate(90)"/>
              <path id="Path_24-3" data-name="Path 24" class="cls-9" d="M0,0V7.717" transform="translate(7.717 3.491) rotate(90)"/>
              <path id="Path_26-3" data-name="Path 26" class="cls-9" d="M0,0V7.717" transform="translate(7.717 6.982) rotate(90)"/>
            </g>
            <g id="ICON_Delete-3" data-name="ICON_Delete" transform="translate(292 15)">
              <g id="Ellipse_7-3" data-name="Ellipse 7" class="cls-9">
                <circle class="cls-21" cx="11" cy="11" r="11"/>
                <circle class="cls-1" cx="11" cy="11" r="10.25"/>
              </g>
              <line id="Line_1-3" data-name="Line 1" class="cls-10" x1="9" transform="translate(7.818 7.818) rotate(45)"/>
              <line id="Line_2-3" data-name="Line 2" class="cls-10" x2="9" transform="translate(7.818 14.182) rotate(-45)"/>
            </g>
          </g>
        </g>
        <g transform="translate(0 48)">
          <g id="ListItem-4" data-name="ListItem" transform="translate(0 129)">
            <rect id="Rectangle_4-4" data-name="Rectangle 4" class="cls-1" width="338" height="59"/>
            <g id="Text-4" data-name="Text">
              <text id="This_is_a_simple_noto-4" data-name="This is a simple noto" class="cls-5" transform="translate(60 12)"><tspan x="0" y="18">This is a simple noto</tspan></text>
              <text id="_dennis_tag1_tag2-4" data-name="@dennis #tag1 #tag2" class="cls-6" transform="translate(60 33)"><tspan x="0" y="11">@dennis #tag1 #tag2</tspan></text>
            </g>
            <g id="ICON_Arrow-4" data-name="ICON_Arrow" class="cls-7" transform="translate(314.148 34.607) rotate(180)">
              <rect id="Rectangle_22-4" data-name="Rectangle 22" class="cls-1" width="22" height="21"/>
              <path id="Path_37-4" data-name="Path 37" class="cls-8" d="M42.622,36.178l-5.965,5.965,5.965,5.965" transform="translate(-28.675 -32.001)"/>
            </g>
            <g id="ICON_Drag-4" data-name="ICON_Drag" transform="translate(31.25 20.5)">
              <path id="Path_15-4" data-name="Path 15" class="cls-9" d="M0,0V7.717" transform="translate(7.717) rotate(90)"/>
              <path id="Path_24-4" data-name="Path 24" class="cls-9" d="M0,0V7.717" transform="translate(7.717 3.491) rotate(90)"/>
              <path id="Path_26-4" data-name="Path 26" class="cls-9" d="M0,0V7.717" transform="translate(7.717 6.982) rotate(90)"/>
            </g>
            <g id="ICON_Delete-4" data-name="ICON_Delete" transform="translate(292 15)">
              <g id="Ellipse_7-4" data-name="Ellipse 7" class="cls-9">
                <circle class="cls-21" cx="11" cy="11" r="11"/>
                <circle class="cls-1" cx="11" cy="11" r="10.25"/>
              </g>
              <line id="Line_1-4" data-name="Line 1" class="cls-10" x1="9" transform="translate(7.818 7.818) rotate(45)"/>
              <line id="Line_2-4" data-name="Line 2" class="cls-10" x2="9" transform="translate(7.818 14.182) rotate(-45)"/>
            </g>
          </g>
        </g>
      </g>
    </g>
    <g id="ListTasks-2" data-name="ListTasks" transform="translate(0 233)">
      <text id="Tomorrow" class="cls-3" transform="translate(60 93)"><tspan x="0" y="25">Tomorrow</tspan></text>
      <g id="Repeat_Grid_6-2" data-name="Repeat Grid 6" class="cls-11" transform="translate(0 129)">
        <g transform="translate(0 -129)">
          <g id="ListItem-5" data-name="ListItem" transform="translate(0 129)">
            <rect id="Rectangle_4-5" data-name="Rectangle 4" class="cls-1" width="338" height="59"/>
            <g id="Text-5" data-name="Text">
              <text id="This_is_a_simple_noto-5" data-name="This is a simple noto" class="cls-5" transform="translate(60 12)"><tspan x="0" y="18">This is a simple noto</tspan></text>
              <text id="_dennis_tag1_tag2-5" data-name="@dennis #tag1 #tag2" class="cls-6" transform="translate(60 33)"><tspan x="0" y="11">@dennis #tag1 #tag2</tspan></text>
            </g>
            <g id="ICON_Arrow-5" data-name="ICON_Arrow" class="cls-7" transform="translate(314.148 34.607) rotate(180)">
              <rect id="Rectangle_22-5" data-name="Rectangle 22" class="cls-1" width="22" height="21"/>
              <path id="Path_37-5" data-name="Path 37" class="cls-8" d="M42.622,36.178l-5.965,5.965,5.965,5.965" transform="translate(-28.675 -32.001)"/>
            </g>
            <g id="ICON_Drag-5" data-name="ICON_Drag" transform="translate(31.25 20.5)">
              <path id="Path_15-5" data-name="Path 15" class="cls-9" d="M0,0V7.717" transform="translate(7.717) rotate(90)"/>
              <path id="Path_24-5" data-name="Path 24" class="cls-9" d="M0,0V7.717" transform="translate(7.717 3.491) rotate(90)"/>
              <path id="Path_26-5" data-name="Path 26" class="cls-9" d="M0,0V7.717" transform="translate(7.717 6.982) rotate(90)"/>
            </g>
            <g id="ICON_Delete-5" data-name="ICON_Delete" transform="translate(292 15)">
              <g id="Ellipse_7-5" data-name="Ellipse 7" class="cls-9">
                <circle class="cls-21" cx="11" cy="11" r="11"/>
                <circle class="cls-1" cx="11" cy="11" r="10.25"/>
              </g>
              <line id="Line_1-5" data-name="Line 1" class="cls-10" x1="9" transform="translate(7.818 7.818) rotate(45)"/>
              <line id="Line_2-5" data-name="Line 2" class="cls-10" x2="9" transform="translate(7.818 14.182) rotate(-45)"/>
            </g>
          </g>
        </g>
        <g transform="translate(0 -70)">
          <g id="ListItem-6" data-name="ListItem" transform="translate(0 129)">
            <rect id="Rectangle_4-6" data-name="Rectangle 4" class="cls-1" width="338" height="59"/>
            <g id="Text-6" data-name="Text">
              <text id="This_is_a_simple_noto-6" data-name="This is a simple noto" class="cls-5" transform="translate(60 12)"><tspan x="0" y="18">This is a simple noto</tspan></text>
              <text id="_dennis_tag1_tag2-6" data-name="@dennis #tag1 #tag2" class="cls-6" transform="translate(60 33)"><tspan x="0" y="11">@dennis #tag1 #tag2</tspan></text>
            </g>
            <g id="ICON_Arrow-6" data-name="ICON_Arrow" class="cls-7" transform="translate(314.148 34.607) rotate(180)">
              <rect id="Rectangle_22-6" data-name="Rectangle 22" class="cls-1" width="22" height="21"/>
              <path id="Path_37-6" data-name="Path 37" class="cls-8" d="M42.622,36.178l-5.965,5.965,5.965,5.965" transform="translate(-28.675 -32.001)"/>
            </g>
            <g id="ICON_Drag-6" data-name="ICON_Drag" transform="translate(31.25 20.5)">
              <path id="Path_15-6" data-name="Path 15" class="cls-9" d="M0,0V7.717" transform="translate(7.717) rotate(90)"/>
              <path id="Path_24-6" data-name="Path 24" class="cls-9" d="M0,0V7.717" transform="translate(7.717 3.491) rotate(90)"/>
              <path id="Path_26-6" data-name="Path 26" class="cls-9" d="M0,0V7.717" transform="translate(7.717 6.982) rotate(90)"/>
            </g>
            <g id="ICON_Delete-6" data-name="ICON_Delete" transform="translate(292 15)">
              <g id="Ellipse_7-6" data-name="Ellipse 7" class="cls-9">
                <circle class="cls-21" cx="11" cy="11" r="11"/>
                <circle class="cls-1" cx="11" cy="11" r="10.25"/>
              </g>
              <line id="Line_1-6" data-name="Line 1" class="cls-10" x1="9" transform="translate(7.818 7.818) rotate(45)"/>
              <line id="Line_2-6" data-name="Line 2" class="cls-10" x2="9" transform="translate(7.818 14.182) rotate(-45)"/>
            </g>
          </g>
        </g>
      </g>
    </g>
    <g id="ListTasks-3" data-name="ListTasks" transform="translate(0 406)">
      <text id="Thursday" class="cls-3" transform="translate(60 93)"><tspan x="0" y="25">Thursday</tspan></text>
      <g id="Repeat_Grid_6-3" data-name="Repeat Grid 6" class="cls-12" transform="translate(0 129)">
        <g transform="translate(0 -129)">
          <g id="ListItem-7" data-name="ListItem" transform="translate(0 129)">
            <rect id="Rectangle_4-7" data-name="Rectangle 4" class="cls-1" width="338" height="59"/>
            <g id="Text-7" data-name="Text">
              <text id="This_is_a_simple_noto-7" data-name="This is a simple noto" class="cls-5" transform="translate(60 12)"><tspan x="0" y="18">This is a simple noto</tspan></text>
              <text id="_dennis_tag1_tag2-7" data-name="@dennis #tag1 #tag2" class="cls-6" transform="translate(60 33)"><tspan x="0" y="11">@dennis #tag1 #tag2</tspan></text>
            </g>
            <g id="ICON_Arrow-7" data-name="ICON_Arrow" class="cls-7" transform="translate(314.148 34.607) rotate(180)">
              <rect id="Rectangle_22-7" data-name="Rectangle 22" class="cls-1" width="22" height="21"/>
              <path id="Path_37-7" data-name="Path 37" class="cls-8" d="M42.622,36.178l-5.965,5.965,5.965,5.965" transform="translate(-28.675 -32.001)"/>
            </g>
            <g id="ICON_Drag-7" data-name="ICON_Drag" transform="translate(31.25 20.5)">
              <path id="Path_15-7" data-name="Path 15" class="cls-9" d="M0,0V7.717" transform="translate(7.717) rotate(90)"/>
              <path id="Path_24-7" data-name="Path 24" class="cls-9" d="M0,0V7.717" transform="translate(7.717 3.491) rotate(90)"/>
              <path id="Path_26-7" data-name="Path 26" class="cls-9" d="M0,0V7.717" transform="translate(7.717 6.982) rotate(90)"/>
            </g>
            <g id="ICON_Delete-7" data-name="ICON_Delete" transform="translate(292 15)">
              <g id="Ellipse_7-7" data-name="Ellipse 7" class="cls-9">
                <circle class="cls-21" cx="11" cy="11" r="11"/>
                <circle class="cls-1" cx="11" cy="11" r="10.25"/>
              </g>
              <line id="Line_1-7" data-name="Line 1" class="cls-10" x1="9" transform="translate(7.818 7.818) rotate(45)"/>
              <line id="Line_2-7" data-name="Line 2" class="cls-10" x2="9" transform="translate(7.818 14.182) rotate(-45)"/>
            </g>
          </g>
        </g>
        <g transform="translate(0 -70)">
          <g id="ListItem-8" data-name="ListItem" transform="translate(0 129)">
            <rect id="Rectangle_4-8" data-name="Rectangle 4" class="cls-1" width="338" height="59"/>
            <g id="Text-8" data-name="Text">
              <text id="This_is_a_simple_noto-8" data-name="This is a simple noto" class="cls-5" transform="translate(60 12)"><tspan x="0" y="18">This is a simple noto</tspan></text>
              <text id="_dennis_tag1_tag2-8" data-name="@dennis #tag1 #tag2" class="cls-6" transform="translate(60 33)"><tspan x="0" y="11">@dennis #tag1 #tag2</tspan></text>
            </g>
            <g id="ICON_Arrow-8" data-name="ICON_Arrow" class="cls-7" transform="translate(314.148 34.607) rotate(180)">
              <rect id="Rectangle_22-8" data-name="Rectangle 22" class="cls-1" width="22" height="21"/>
              <path id="Path_37-8" data-name="Path 37" class="cls-8" d="M42.622,36.178l-5.965,5.965,5.965,5.965" transform="translate(-28.675 -32.001)"/>
            </g>
            <g id="ICON_Drag-8" data-name="ICON_Drag" transform="translate(31.25 20.5)">
              <path id="Path_15-8" data-name="Path 15" class="cls-9" d="M0,0V7.717" transform="translate(7.717) rotate(90)"/>
              <path id="Path_24-8" data-name="Path 24" class="cls-9" d="M0,0V7.717" transform="translate(7.717 3.491) rotate(90)"/>
              <path id="Path_26-8" data-name="Path 26" class="cls-9" d="M0,0V7.717" transform="translate(7.717 6.982) rotate(90)"/>
            </g>
            <g id="ICON_Delete-8" data-name="ICON_Delete" transform="translate(292 15)">
              <g id="Ellipse_7-8" data-name="Ellipse 7" class="cls-9">
                <circle class="cls-21" cx="11" cy="11" r="11"/>
                <circle class="cls-1" cx="11" cy="11" r="10.25"/>
              </g>
              <line id="Line_1-8" data-name="Line 1" class="cls-10" x1="9" transform="translate(7.818 7.818) rotate(45)"/>
              <line id="Line_2-8" data-name="Line 2" class="cls-10" x2="9" transform="translate(7.818 14.182) rotate(-45)"/>
            </g>
          </g>
        </g>
        <g transform="translate(0 -11)">
          <g id="ListItem-9" data-name="ListItem" transform="translate(0 129)">
            <rect id="Rectangle_4-9" data-name="Rectangle 4" class="cls-1" width="338" height="59"/>
            <g id="Text-9" data-name="Text">
              <text id="This_is_a_simple_noto-9" data-name="This is a simple noto" class="cls-5" transform="translate(60 12)"><tspan x="0" y="18">This is a simple noto</tspan></text>
              <text id="_dennis_tag1_tag2-9" data-name="@dennis #tag1 #tag2" class="cls-6" transform="translate(60 33)"><tspan x="0" y="11">@dennis #tag1 #tag2</tspan></text>
            </g>
            <g id="ICON_Arrow-9" data-name="ICON_Arrow" class="cls-7" transform="translate(314.148 34.607) rotate(180)">
              <rect id="Rectangle_22-9" data-name="Rectangle 22" class="cls-1" width="22" height="21"/>
              <path id="Path_37-9" data-name="Path 37" class="cls-8" d="M42.622,36.178l-5.965,5.965,5.965,5.965" transform="translate(-28.675 -32.001)"/>
            </g>
            <g id="ICON_Drag-9" data-name="ICON_Drag" transform="translate(31.25 20.5)">
              <path id="Path_15-9" data-name="Path 15" class="cls-9" d="M0,0V7.717" transform="translate(7.717) rotate(90)"/>
              <path id="Path_24-9" data-name="Path 24" class="cls-9" d="M0,0V7.717" transform="translate(7.717 3.491) rotate(90)"/>
              <path id="Path_26-9" data-name="Path 26" class="cls-9" d="M0,0V7.717" transform="translate(7.717 6.982) rotate(90)"/>
            </g>
            <g id="ICON_Delete-9" data-name="ICON_Delete" transform="translate(292 15)">
              <g id="Ellipse_7-9" data-name="Ellipse 7" class="cls-9">
                <circle class="cls-21" cx="11" cy="11" r="11"/>
                <circle class="cls-1" cx="11" cy="11" r="10.25"/>
              </g>
              <line id="Line_1-9" data-name="Line 1" class="cls-10" x1="9" transform="translate(7.818 7.818) rotate(45)"/>
              <line id="Line_2-9" data-name="Line 2" class="cls-10" x2="9" transform="translate(7.818 14.182) rotate(-45)"/>
            </g>
          </g>
        </g>
      </g>
    </g>
    <g id="ListTasks-4" data-name="ListTasks" transform="translate(0 636)">
      <text id="Friday" class="cls-3" transform="translate(60 93)"><tspan x="0" y="25">Friday</tspan></text>
      <g id="Repeat_Grid_6-4" data-name="Repeat Grid 6" class="cls-13" transform="translate(0 129)">
        <g transform="translate(0 -129)">
          <g id="ListItem-10" data-name="ListItem" transform="translate(0 129)">
            <rect id="Rectangle_4-10" data-name="Rectangle 4" class="cls-1" width="338" height="59"/>
            <g id="Text-10" data-name="Text">
              <text id="This_is_a_simple_noto-10" data-name="This is a simple noto" class="cls-5" transform="translate(60 12)"><tspan x="0" y="18">This is a simple noto</tspan></text>
              <text id="_dennis_tag1_tag2-10" data-name="@dennis #tag1 #tag2" class="cls-6" transform="translate(60 33)"><tspan x="0" y="11">@dennis #tag1 #tag2</tspan></text>
            </g>
            <g id="ICON_Arrow-10" data-name="ICON_Arrow" class="cls-7" transform="translate(314.148 34.607) rotate(180)">
              <rect id="Rectangle_22-10" data-name="Rectangle 22" class="cls-1" width="22" height="21"/>
              <path id="Path_37-10" data-name="Path 37" class="cls-8" d="M42.622,36.178l-5.965,5.965,5.965,5.965" transform="translate(-28.675 -32.001)"/>
            </g>
            <g id="ICON_Drag-10" data-name="ICON_Drag" transform="translate(31.25 20.5)">
              <path id="Path_15-10" data-name="Path 15" class="cls-9" d="M0,0V7.717" transform="translate(7.717) rotate(90)"/>
              <path id="Path_24-10" data-name="Path 24" class="cls-9" d="M0,0V7.717" transform="translate(7.717 3.491) rotate(90)"/>
              <path id="Path_26-10" data-name="Path 26" class="cls-9" d="M0,0V7.717" transform="translate(7.717 6.982) rotate(90)"/>
            </g>
            <g id="ICON_Delete-10" data-name="ICON_Delete" transform="translate(292 15)">
              <g id="Ellipse_7-10" data-name="Ellipse 7" class="cls-9">
                <circle class="cls-21" cx="11" cy="11" r="11"/>
                <circle class="cls-1" cx="11" cy="11" r="10.25"/>
              </g>
              <line id="Line_1-10" data-name="Line 1" class="cls-10" x1="9" transform="translate(7.818 7.818) rotate(45)"/>
              <line id="Line_2-10" data-name="Line 2" class="cls-10" x2="9" transform="translate(7.818 14.182) rotate(-45)"/>
            </g>
          </g>
        </g>
        <g transform="translate(0 -70)">
          <g id="ListItem-11" data-name="ListItem" transform="translate(0 129)">
            <rect id="Rectangle_4-11" data-name="Rectangle 4" class="cls-1" width="338" height="59"/>
            <g id="Text-11" data-name="Text">
              <text id="This_is_a_simple_noto-11" data-name="This is a simple noto" class="cls-5" transform="translate(60 12)"><tspan x="0" y="18">This is a simple noto</tspan></text>
              <text id="_dennis_tag1_tag2-11" data-name="@dennis #tag1 #tag2" class="cls-6" transform="translate(60 33)"><tspan x="0" y="11">@dennis #tag1 #tag2</tspan></text>
            </g>
            <g id="ICON_Arrow-11" data-name="ICON_Arrow" class="cls-7" transform="translate(314.148 34.607) rotate(180)">
              <rect id="Rectangle_22-11" data-name="Rectangle 22" class="cls-1" width="22" height="21"/>
              <path id="Path_37-11" data-name="Path 37" class="cls-8" d="M42.622,36.178l-5.965,5.965,5.965,5.965" transform="translate(-28.675 -32.001)"/>
            </g>
            <g id="ICON_Drag-11" data-name="ICON_Drag" transform="translate(31.25 20.5)">
              <path id="Path_15-11" data-name="Path 15" class="cls-9" d="M0,0V7.717" transform="translate(7.717) rotate(90)"/>
              <path id="Path_24-11" data-name="Path 24" class="cls-9" d="M0,0V7.717" transform="translate(7.717 3.491) rotate(90)"/>
              <path id="Path_26-11" data-name="Path 26" class="cls-9" d="M0,0V7.717" transform="translate(7.717 6.982) rotate(90)"/>
            </g>
            <g id="ICON_Delete-11" data-name="ICON_Delete" transform="translate(292 15)">
              <g id="Ellipse_7-11" data-name="Ellipse 7" class="cls-9">
                <circle class="cls-21" cx="11" cy="11" r="11"/>
                <circle class="cls-1" cx="11" cy="11" r="10.25"/>
              </g>
              <line id="Line_1-11" data-name="Line 1" class="cls-10" x1="9" transform="translate(7.818 7.818) rotate(45)"/>
              <line id="Line_2-11" data-name="Line 2" class="cls-10" x2="9" transform="translate(7.818 14.182) rotate(-45)"/>
            </g>
          </g>
        </g>
        <g transform="translate(0 -11)">
          <g id="ListItem-12" data-name="ListItem" transform="translate(0 129)">
            <rect id="Rectangle_4-12" data-name="Rectangle 4" class="cls-1" width="338" height="59"/>
            <g id="Text-12" data-name="Text">
              <text id="This_is_a_simple_noto-12" data-name="This is a simple noto" class="cls-5" transform="translate(60 12)"><tspan x="0" y="18">This is a simple noto</tspan></text>
              <text id="_dennis_tag1_tag2-12" data-name="@dennis #tag1 #tag2" class="cls-6" transform="translate(60 33)"><tspan x="0" y="11">@dennis #tag1 #tag2</tspan></text>
            </g>
            <g id="ICON_Arrow-12" data-name="ICON_Arrow" class="cls-7" transform="translate(314.148 34.607) rotate(180)">
              <rect id="Rectangle_22-12" data-name="Rectangle 22" class="cls-1" width="22" height="21"/>
              <path id="Path_37-12" data-name="Path 37" class="cls-8" d="M42.622,36.178l-5.965,5.965,5.965,5.965" transform="translate(-28.675 -32.001)"/>
            </g>
            <g id="ICON_Drag-12" data-name="ICON_Drag" transform="translate(31.25 20.5)">
              <path id="Path_15-12" data-name="Path 15" class="cls-9" d="M0,0V7.717" transform="translate(7.717) rotate(90)"/>
              <path id="Path_24-12" data-name="Path 24" class="cls-9" d="M0,0V7.717" transform="translate(7.717 3.491) rotate(90)"/>
              <path id="Path_26-12" data-name="Path 26" class="cls-9" d="M0,0V7.717" transform="translate(7.717 6.982) rotate(90)"/>
            </g>
            <g id="ICON_Delete-12" data-name="ICON_Delete" transform="translate(292 15)">
              <g id="Ellipse_7-12" data-name="Ellipse 7" class="cls-9">
                <circle class="cls-21" cx="11" cy="11" r="11"/>
                <circle class="cls-1" cx="11" cy="11" r="10.25"/>
              </g>
              <line id="Line_1-12" data-name="Line 1" class="cls-10" x1="9" transform="translate(7.818 7.818) rotate(45)"/>
              <line id="Line_2-12" data-name="Line 2" class="cls-10" x2="9" transform="translate(7.818 14.182) rotate(-45)"/>
            </g>
          </g>
        </g>
        <g transform="translate(0 48)">
          <g id="ListItem-13" data-name="ListItem" transform="translate(0 129)">
            <rect id="Rectangle_4-13" data-name="Rectangle 4" class="cls-1" width="338" height="59"/>
            <g id="Text-13" data-name="Text">
              <text id="This_is_a_simple_noto-13" data-name="This is a simple noto" class="cls-5" transform="translate(60 12)"><tspan x="0" y="18">This is a simple noto</tspan></text>
              <text id="_dennis_tag1_tag2-13" data-name="@dennis #tag1 #tag2" class="cls-6" transform="translate(60 33)"><tspan x="0" y="11">@dennis #tag1 #tag2</tspan></text>
            </g>
            <g id="ICON_Arrow-13" data-name="ICON_Arrow" class="cls-7" transform="translate(314.148 34.607) rotate(180)">
              <rect id="Rectangle_22-13" data-name="Rectangle 22" class="cls-1" width="22" height="21"/>
              <path id="Path_37-13" data-name="Path 37" class="cls-8" d="M42.622,36.178l-5.965,5.965,5.965,5.965" transform="translate(-28.675 -32.001)"/>
            </g>
            <g id="ICON_Drag-13" data-name="ICON_Drag" transform="translate(31.25 20.5)">
              <path id="Path_15-13" data-name="Path 15" class="cls-9" d="M0,0V7.717" transform="translate(7.717) rotate(90)"/>
              <path id="Path_24-13" data-name="Path 24" class="cls-9" d="M0,0V7.717" transform="translate(7.717 3.491) rotate(90)"/>
              <path id="Path_26-13" data-name="Path 26" class="cls-9" d="M0,0V7.717" transform="translate(7.717 6.982) rotate(90)"/>
            </g>
            <g id="ICON_Delete-13" data-name="ICON_Delete" transform="translate(292 15)">
              <g id="Ellipse_7-13" data-name="Ellipse 7" class="cls-9">
                <circle class="cls-21" cx="11" cy="11" r="11"/>
                <circle class="cls-1" cx="11" cy="11" r="10.25"/>
              </g>
              <line id="Line_1-13" data-name="Line 1" class="cls-10" x1="9" transform="translate(7.818 7.818) rotate(45)"/>
              <line id="Line_2-13" data-name="Line 2" class="cls-10" x2="9" transform="translate(7.818 14.182) rotate(-45)"/>
            </g>
          </g>
        </g>
      </g>
    </g>
    <g id="Header" class="cls-14">
      <rect id="Rectangle_6" data-name="Rectangle 6" class="cls-15" width="338" height="78"/>
      <text id="Work" class="cls-16" transform="translate(60 50)"><tspan x="0" y="0">Work</tspan></text>
      <g id="ICON_Arrow-14" data-name="ICON_Arrow" transform="translate(24.017 30.822)">
        <rect id="Rectangle_22-14" data-name="Rectangle 22" class="cls-1" width="22" height="21"/>
        <path id="Path_37-14" data-name="Path 37" class="cls-8" d="M42.622,36.178l-5.965,5.965,5.965,5.965" transform="translate(-28.675 -32.001)"/>
      </g>
      <g id="ICON_Move" transform="translate(291 29)">
        <g id="Ellipse_7-14" data-name="Ellipse 7" class="cls-9">
          <circle class="cls-21" cx="11" cy="11" r="11"/>
          <circle class="cls-1" cx="11" cy="11" r="10.25"/>
        </g>
        <g id="Symbol" transform="translate(-24.759 -774.751)">
          <path id="Path_15-14" data-name="Path 15" class="cls-9" d="M0,0V6.366" transform="translate(39.937 782.751) rotate(90)"/>
          <path id="Path_23" data-name="Path 23" class="cls-10" d="M30.759,782.751h0"/>
          <path id="Path_24-14" data-name="Path 24" class="cls-9" d="M0,0V6.366" transform="translate(39.937 785.751) rotate(90)"/>
          <path id="Path_25" data-name="Path 25" class="cls-10" d="M30.759,782.751h0" transform="translate(0 3)"/>
          <path id="Path_26-14" data-name="Path 26" class="cls-9" d="M0,0V6.366" transform="translate(39.937 788.751) rotate(90)"/>
          <path id="Path_27" data-name="Path 27" class="cls-10" d="M30.759,782.751h0" transform="translate(0 6)"/>
        </g>
      </g>
    </g>
    <g id="Bottom" transform="translate(0 757)">
      <path id="Path_36" data-name="Path 36" class="cls-17" d="M0,0H338V55H0Z"/>
      <g id="ICON_Check" transform="translate(291 17)">
        <g id="Ellipse_7-15" data-name="Ellipse 7" class="cls-18">
          <circle class="cls-21" cx="11" cy="11" r="11"/>
          <circle class="cls-1" cx="11" cy="11" r="10.25"/>
        </g>
        <g id="Group_14" data-name="Group 14" transform="translate(-25 -772.8)">
          <path id="Path_16" data-name="Path 16" class="cls-19" d="M4.1,4.556,0,0" transform="translate(31.5 784.048)"/>
          <line id="Line_2-14" data-name="Line 2" class="cls-19" x1="4.135" y2="9.096" transform="translate(35.635 779.5)"/>
        </g>
      </g>
      <path id="HRLine" class="cls-20" d="M0,0H338" transform="translate(0 0.5)"/>
      <g id="ICON_Plus" transform="translate(25 17)">
        <g id="Ellipse_7-16" data-name="Ellipse 7" class="cls-18">
          <circle class="cls-21" cx="11" cy="11" r="11"/>
          <circle class="cls-1" cx="11" cy="11" r="10.25"/>
        </g>
        <line id="Line_1-14" data-name="Line 1" class="cls-19" x1="9" transform="translate(6.5 11)"/>
        <line id="Line_2-15" data-name="Line 2" class="cls-19" x2="9" transform="translate(11 6.5) rotate(90)"/>
      </g>
    </g>
  </g>
</svg>
