<svg xmlns="http://www.w3.org/2000/svg" xmlns:xlink="http://www.w3.org/1999/xlink" width="338" height="1054" viewBox="0 0 338 1054">
  <defs>
    <style>
      .cls-1, .cls-14, .cls-15, .cls-17, .cls-21, .cls-23, .cls-25, .cls-26, .cls-27, .cls-28, .cls-29, .cls-7, .cls-9 {
        fill: none;
      }

      .cls-2 {
        clip-path: url(#clip-Listview);
      }

      .cls-13, .cls-3, .cls-5 {
        fill: #4b6a8a;
      }

      .cls-3 {
        font-size: 24px;
      }

      .cls-13, .cls-3 {
        font-family: DMSerifDisplay-Regular, DM Serif Display;
      }

      .cls-4 {
        clip-path: url(#clip-path);
      }

      .cls-19, .cls-5 {
        font-size: 20px;
      }

      .cls-19, .cls-20, .cls-5, .cls-6 {
        font-family: SourceSerifPro-Regular, Source Serif Pro;
      }

      .cls-24, .cls-6 {
        fill: #83c6ae;
      }

      .cls-20, .cls-6 {
        font-size: 12px;
      }

      .cls-14, .cls-15, .cls-7, .cls-9 {
        stroke: #445f7d;
      }

      .cls-14, .cls-15, .cls-17, .cls-21, .cls-25, .cls-26, .cls-29, .cls-7 {
        stroke-width: 1.5px;
      }

      .cls-8 {
        opacity: 0;
      }

      .cls-14, .cls-15, .cls-17, .cls-23, .cls-25, .cls-26, .cls-27, .cls-9 {
        stroke-linecap: round;
      }

      .cls-14, .cls-17, .cls-23, .cls-25, .cls-9 {
        stroke-linejoin: round;
      }

      .cls-23, .cls-27, .cls-9 {
        stroke-width: 2px;
      }

      .cls-10 {
        clip-path: url(#clip-path-2);
      }

      .cls-11 {
        opacity: 0.999;
      }

      .cls-12 {
        fill: #eef1f5;
      }

      .cls-13 {
        font-size: 28px;
      }

      .cls-16 {
        clip-path: url(#clip-path-3);
      }

      .cls-17 {
        stroke: #83c6ae;
      }

      .cls-18 {
        clip-path: url(#clip-path-4);
      }

      .cls-19, .cls-20, .cls-22 {
        fill: #7c8c9d;
      }

      .cls-21, .cls-22, .cls-23 {
        stroke: #7c8c9d;
      }

      .cls-25, .cls-26, .cls-27, .cls-29 {
        stroke: #fff;
      }

      .cls-28 {
        stroke: #a5dfc9;
      }

      .cls-30 {
        stroke: none;
      }
    </style>
    <clipPath id="clip-path">
      <rect class="cls-1" width="338" height="178"/>
    </clipPath>
    <clipPath id="clip-path-2">
      <rect class="cls-1" width="338" height="118"/>
    </clipPath>
    <clipPath id="clip-path-3">
      <rect class="cls-1" width="338" height="175"/>
    </clipPath>
    <clipPath id="clip-path-4">
      <rect class="cls-1" width="338" height="185"/>
    </clipPath>
    <clipPath id="clip-Listview">
      <rect width="338" height="1054"/>
    </clipPath>
  </defs>
  <g id="Listview" class="cls-2">
    <rect class="cls-12" width="338" height="1054"/>
    <g id="ListTasks">
      <text id="Today" class="cls-3" transform="translate(60 93)"><tspan x="0" y="25">Today</tspan></text>
      <g id="Repeat_Grid_6" data-name="Repeat Grid 6" class="cls-4" transform="translate(0 129)">
        <g transform="translate(0 -129)">
          <g id="ListItem" transform="translate(0 129)">
            <rect id="Rectangle_4" data-name="Rectangle 4" class="cls-1" width="338" height="59"/>
            <g id="Text">
              <text id="This_is_a_simple_noto" data-name="This is a simple noto" class="cls-5" transform="translate(60 12)"><tspan x="0" y="18">This is a simple noto</tspan></text>
              <text id="_dennis_tag1_tag2" data-name="@dennis #tag1 #tag2" class="cls-6" transform="translate(60 33)"><tspan x="0" y="11">@dennis #tag1 #tag2</tspan></text>
            </g>
            <g id="ICON_Done" transform="translate(25 16)">
              <g id="Ellipse_10" data-name="Ellipse 10" class="cls-7">
                <circle class="cls-30" cx="11" cy="11" r="11"/>
                <circle class="cls-1" cx="11" cy="11" r="10.25"/>
              </g>
            </g>
            <g id="ICON_Arrow" class="cls-8" transform="translate(314.148 34.607) rotate(180)">
              <rect id="Rectangle_22" data-name="Rectangle 22" class="cls-1" width="22" height="21"/>
              <path id="Path_37" data-name="Path 37" class="cls-9" d="M42.622,36.178l-5.965,5.965,5.965,5.965" transform="translate(-28.675 -32.001)"/>
            </g>
          </g>
        </g>
        <g transform="translate(0 -70)">
          <g id="ListItem-2" data-name="ListItem" transform="translate(0 129)">
            <rect id="Rectangle_4-2" data-name="Rectangle 4" class="cls-1" width="338" height="59"/>
            <g id="Text-2" data-name="Text">
              <text id="This_is_a_simple_noto-2" data-name="This is a simple noto" class="cls-5" transform="translate(60 12)"><tspan x="0" y="18">This is a simple noto</tspan></text>
              <text id="_dennis_tag1_tag2-2" data-name="@dennis #tag1 #tag2" class="cls-6" transform="translate(60 33)"><tspan x="0" y="11">@dennis #tag1 #tag2</tspan></text>
            </g>
            <g id="ICON_Done-2" data-name="ICON_Done" transform="translate(25 16)">
              <g id="Ellipse_10-2" data-name="Ellipse 10" class="cls-7">
                <circle class="cls-30" cx="11" cy="11" r="11"/>
                <circle class="cls-1" cx="11" cy="11" r="10.25"/>
              </g>
            </g>
            <g id="ICON_Arrow-2" data-name="ICON_Arrow" class="cls-8" transform="translate(314.148 34.607) rotate(180)">
              <rect id="Rectangle_22-2" data-name="Rectangle 22" class="cls-1" width="22" height="21"/>
              <path id="Path_37-2" data-name="Path 37" class="cls-9" d="M42.622,36.178l-5.965,5.965,5.965,5.965" transform="translate(-28.675 -32.001)"/>
            </g>
          </g>
        </g>
        <g transform="translate(0 -11)">
          <g id="ListItem-3" data-name="ListItem" transform="translate(0 129)">
            <rect id="Rectangle_4-3" data-name="Rectangle 4" class="cls-1" width="338" height="59"/>
            <g id="Text-3" data-name="Text">
              <text id="This_is_a_simple_noto-3" data-name="This is a simple noto" class="cls-5" transform="translate(60 12)"><tspan x="0" y="18">This is a simple noto</tspan></text>
              <text id="_dennis_tag1_tag2-3" data-name="@dennis #tag1 #tag2" class="cls-6" transform="translate(60 33)"><tspan x="0" y="11">@dennis #tag1 #tag2</tspan></text>
            </g>
            <g id="ICON_Done-3" data-name="ICON_Done" transform="translate(25 16)">
              <g id="Ellipse_10-3" data-name="Ellipse 10" class="cls-7">
                <circle class="cls-30" cx="11" cy="11" r="11"/>
                <circle class="cls-1" cx="11" cy="11" r="10.25"/>
              </g>
            </g>
            <g id="ICON_Arrow-3" data-name="ICON_Arrow" class="cls-8" transform="translate(314.148 34.607) rotate(180)">
              <rect id="Rectangle_22-3" data-name="Rectangle 22" class="cls-1" width="22" height="21"/>
              <path id="Path_37-3" data-name="Path 37" class="cls-9" d="M42.622,36.178l-5.965,5.965,5.965,5.965" transform="translate(-28.675 -32.001)"/>
            </g>
          </g>
        </g>
        <g transform="translate(0 48)">
          <g id="ListItem-4" data-name="ListItem" transform="translate(0 129)">
            <rect id="Rectangle_4-4" data-name="Rectangle 4" class="cls-1" width="338" height="59"/>
            <g id="Text-4" data-name="Text">
              <text id="This_is_a_simple_noto-4" data-name="This is a simple noto" class="cls-5" transform="translate(60 12)"><tspan x="0" y="18">This is a simple noto</tspan></text>
              <text id="_dennis_tag1_tag2-4" data-name="@dennis #tag1 #tag2" class="cls-6" transform="translate(60 33)"><tspan x="0" y="11">@dennis #tag1 #tag2</tspan></text>
            </g>
            <g id="ICON_Done-4" data-name="ICON_Done" transform="translate(25 16)">
              <g id="Ellipse_10-4" data-name="Ellipse 10" class="cls-7">
                <circle class="cls-30" cx="11" cy="11" r="11"/>
                <circle class="cls-1" cx="11" cy="11" r="10.25"/>
              </g>
            </g>
            <g id="ICON_Arrow-4" data-name="ICON_Arrow" class="cls-8" transform="translate(314.148 34.607) rotate(180)">
              <rect id="Rectangle_22-4" data-name="Rectangle 22" class="cls-1" width="22" height="21"/>
              <path id="Path_37-4" data-name="Path 37" class="cls-9" d="M42.622,36.178l-5.965,5.965,5.965,5.965" transform="translate(-28.675 -32.001)"/>
            </g>
          </g>
        </g>
      </g>
    </g>
    <g id="ListTasks-2" data-name="ListTasks" transform="translate(0 233)">
      <text id="Tomorrow" class="cls-3" transform="translate(60 93)"><tspan x="0" y="25">Tomorrow</tspan></text>
      <g id="Repeat_Grid_6-2" data-name="Repeat Grid 6" class="cls-10" transform="translate(0 129)">
        <g transform="translate(0 -129)">
          <g id="ListItem-5" data-name="ListItem" transform="translate(0 129)">
            <rect id="Rectangle_4-5" data-name="Rectangle 4" class="cls-1" width="338" height="59"/>
            <g id="Text-5" data-name="Text">
              <text id="This_is_a_complex_noto" data-name="This is a complex noto" class="cls-5" transform="translate(60 12)"><tspan x="0" y="18">This is a complex noto</tspan></text>
              <text id="_dennis_tag1_tag2-5" data-name="@dennis #tag1 #tag2" class="cls-6" transform="translate(60 33)"><tspan x="0" y="11">@dennis #tag1 #tag2</tspan></text>
            </g>
            <g id="ICON_Done-5" data-name="ICON_Done" transform="translate(25 16)">
              <g id="Ellipse_10-5" data-name="Ellipse 10" class="cls-7">
                <circle class="cls-30" cx="11" cy="11" r="11"/>
                <circle class="cls-1" cx="11" cy="11" r="10.25"/>
              </g>
            </g>
            <g id="ICON_Arrow-5" data-name="ICON_Arrow" class="cls-11" transform="translate(314.148 34.607) rotate(180)">
              <rect id="Rectangle_22-5" data-name="Rectangle 22" class="cls-1" width="22" height="21"/>
              <path id="Path_37-5" data-name="Path 37" class="cls-9" d="M42.622,36.178l-5.965,5.965,5.965,5.965" transform="translate(-28.675 -32.001)"/>
            </g>
          </g>
        </g>
        <g transform="translate(0 -70)">
          <g id="ListItem-6" data-name="ListItem" transform="translate(0 129)">
            <rect id="Rectangle_4-6" data-name="Rectangle 4" class="cls-1" width="338" height="59"/>
            <g id="Text-6" data-name="Text">
              <text id="This_is_a_complex_noto-2" data-name="This is a complex noto" class="cls-5" transform="translate(60 12)"><tspan x="0" y="18">This is a complex noto</tspan></text>
              <text id="_dennis_tag1_tag2-6" data-name="@dennis #tag1 #tag2" class="cls-6" transform="translate(60 33)"><tspan x="0" y="11">@dennis #tag1 #tag2</tspan></text>
            </g>
            <g id="ICON_Done-6" data-name="ICON_Done" transform="translate(25 16)">
              <g id="Ellipse_10-6" data-name="Ellipse 10" class="cls-7">
                <circle class="cls-30" cx="11" cy="11" r="11"/>
                <circle class="cls-1" cx="11" cy="11" r="10.25"/>
              </g>
            </g>
            <g id="ICON_Arrow-6" data-name="ICON_Arrow" class="cls-11" transform="translate(314.148 34.607) rotate(180)">
              <rect id="Rectangle_22-6" data-name="Rectangle 22" class="cls-1" width="22" height="21"/>
              <path id="Path_37-6" data-name="Path 37" class="cls-9" d="M42.622,36.178l-5.965,5.965,5.965,5.965" transform="translate(-28.675 -32.001)"/>
            </g>
          </g>
        </g>
      </g>
    </g>
    <g id="Header">
      <rect id="Rectangle_6" data-name="Rectangle 6" class="cls-12" width="338" height="78"/>
      <g id="HITBOX">
        <text id="Work" class="cls-13" transform="translate(60 50)"><tspan x="0" y="0">Work</tspan></text>
        <g id="ICON_Arrow-7" data-name="ICON_Arrow" transform="translate(24.017 30.822)">
          <rect id="Rectangle_22-7" data-name="Rectangle 22" class="cls-1" width="22" height="21"/>
          <path id="Path_37-7" data-name="Path 37" class="cls-9" d="M42.622,36.178l-5.965,5.965,5.965,5.965" transform="translate(-28.675 -32.001)"/>
        </g>
      </g>
      <g id="ICON_Move" transform="translate(291 29)">
        <g id="Ellipse_7" data-name="Ellipse 7" class="cls-14">
          <circle class="cls-30" cx="11" cy="11" r="11"/>
          <circle class="cls-1" cx="11" cy="11" r="10.25"/>
        </g>
        <g id="Symbol" transform="translate(-24.759 -774.751)">
          <path id="Path_15" data-name="Path 15" class="cls-14" d="M0,0V6.366" transform="translate(39.937 782.751) rotate(90)"/>
          <path id="Path_23" data-name="Path 23" class="cls-15" d="M30.759,782.751h0"/>
          <path id="Path_24" data-name="Path 24" class="cls-14" d="M0,0V6.366" transform="translate(39.937 785.751) rotate(90)"/>
          <path id="Path_25" data-name="Path 25" class="cls-15" d="M30.759,782.751h0" transform="translate(0 3)"/>
          <path id="Path_26" data-name="Path 26" class="cls-14" d="M0,0V6.366" transform="translate(39.937 788.751) rotate(90)"/>
          <path id="Path_27" data-name="Path 27" class="cls-15" d="M30.759,782.751h0" transform="translate(0 6)"/>
        </g>
      </g>
    </g>
    <g id="ListTasks-3" data-name="ListTasks" transform="translate(0 406)">
      <text id="Thursday" class="cls-3" transform="translate(60 93)"><tspan x="0" y="25">Thursday</tspan></text>
      <g id="Repeat_Grid_6-3" data-name="Repeat Grid 6" class="cls-16" transform="translate(0 129)">
        <g transform="translate(0 -129)">
          <g id="ListItem-7" data-name="ListItem" transform="translate(0 129)">
            <rect id="Rectangle_4-7" data-name="Rectangle 4" class="cls-1" width="338" height="59"/>
            <g id="Text-7" data-name="Text">
              <text id="This_is_a_subtask" data-name="This is a subtask" class="cls-5" transform="translate(60 12)"><tspan x="0" y="18">This is a subtask</tspan></text>
              <text id="within_this_complex_noto" data-name="within this complex noto" class="cls-6" transform="translate(75 33)"><tspan x="0" y="11">within this complex noto</tspan></text>
            </g>
            <g id="ICON_Done-7" data-name="ICON_Done" transform="translate(25 16)">
              <g id="Ellipse_10-7" data-name="Ellipse 10" class="cls-7">
                <circle class="cls-30" cx="11" cy="11" r="11"/>
                <circle class="cls-1" cx="11" cy="11" r="10.25"/>
              </g>
            </g>
            <g id="ICON_Arrow-8" data-name="ICON_Arrow" transform="translate(314.148 34.607) rotate(180)">
              <rect id="Rectangle_22-8" data-name="Rectangle 22" class="cls-1" width="22" height="21"/>
              <path id="Path_37-8" data-name="Path 37" class="cls-9" d="M42.622,36.178l-5.965,5.965,5.965,5.965" transform="translate(-28.675 -32.001)"/>
            </g>
            <g id="Arow" transform="translate(282.069 -145.883) rotate(135)">
              <path id="Path_8" data-name="Path 8" class="cls-17" d="M3.9,0H0V4.393" transform="translate(286.792 22.982) rotate(135)"/>
              <path id="Path_9" data-name="Path 9" class="cls-17" d="M3.56,0H0V3.775" transform="translate(281.453 17.487)"/>
            </g>
          </g>
        </g>
        <g transform="translate(0 -70)">
          <g id="ListItem-8" data-name="ListItem" transform="translate(0 129)">
            <rect id="Rectangle_4-8" data-name="Rectangle 4" class="cls-1" width="338" height="59"/>
            <g id="Text-8" data-name="Text">
              <text id="This_is_a_subtask-2" data-name="This is a subtask" class="cls-5" transform="translate(60 12)"><tspan x="0" y="18">This is a subtask</tspan></text>
              <text id="within_this_complex_noto-2" data-name="within this complex noto" class="cls-6" transform="translate(75 33)"><tspan x="0" y="11">within this complex noto</tspan></text>
            </g>
            <g id="ICON_Done-8" data-name="ICON_Done" transform="translate(25 16)">
              <g id="Ellipse_10-8" data-name="Ellipse 10" class="cls-7">
                <circle class="cls-30" cx="11" cy="11" r="11"/>
                <circle class="cls-1" cx="11" cy="11" r="10.25"/>
              </g>
            </g>
            <g id="ICON_Arrow-9" data-name="ICON_Arrow" transform="translate(314.148 34.607) rotate(180)">
              <rect id="Rectangle_22-9" data-name="Rectangle 22" class="cls-1" width="22" height="21"/>
              <path id="Path_37-9" data-name="Path 37" class="cls-9" d="M42.622,36.178l-5.965,5.965,5.965,5.965" transform="translate(-28.675 -32.001)"/>
            </g>
            <g id="Arow-2" data-name="Arow" transform="translate(282.069 -145.883) rotate(135)">
              <path id="Path_8-2" data-name="Path 8" class="cls-17" d="M3.9,0H0V4.393" transform="translate(286.792 22.982) rotate(135)"/>
              <path id="Path_9-2" data-name="Path 9" class="cls-17" d="M3.56,0H0V3.775" transform="translate(281.453 17.487)"/>
            </g>
          </g>
        </g>
        <g transform="translate(0 -11)">
          <g id="ListItem-9" data-name="ListItem" transform="translate(0 129)">
            <rect id="Rectangle_4-9" data-name="Rectangle 4" class="cls-1" width="338" height="59"/>
            <g id="Text-9" data-name="Text">
              <text id="This_is_a_subtask-3" data-name="This is a subtask" class="cls-5" transform="translate(60 12)"><tspan x="0" y="18">This is a subtask</tspan></text>
              <text id="within_this_complex_noto-3" data-name="within this complex noto" class="cls-6" transform="translate(75 33)"><tspan x="0" y="11">within this complex noto</tspan></text>
            </g>
            <g id="ICON_Done-9" data-name="ICON_Done" transform="translate(25 16)">
              <g id="Ellipse_10-9" data-name="Ellipse 10" class="cls-7">
                <circle class="cls-30" cx="11" cy="11" r="11"/>
                <circle class="cls-1" cx="11" cy="11" r="10.25"/>
              </g>
            </g>
            <g id="ICON_Arrow-10" data-name="ICON_Arrow" transform="translate(314.148 34.607) rotate(180)">
              <rect id="Rectangle_22-10" data-name="Rectangle 22" class="cls-1" width="22" height="21"/>
              <path id="Path_37-10" data-name="Path 37" class="cls-9" d="M42.622,36.178l-5.965,5.965,5.965,5.965" transform="translate(-28.675 -32.001)"/>
            </g>
            <g id="Arow-3" data-name="Arow" transform="translate(282.069 -145.883) rotate(135)">
              <path id="Path_8-3" data-name="Path 8" class="cls-17" d="M3.9,0H0V4.393" transform="translate(286.792 22.982) rotate(135)"/>
              <path id="Path_9-3" data-name="Path 9" class="cls-17" d="M3.56,0H0V3.775" transform="translate(281.453 17.487)"/>
            </g>
          </g>
        </g>
      </g>
    </g>
    <g id="ListTasks-4" data-name="ListTasks" transform="translate(0 636)">
      <text id="Friday" class="cls-3" transform="translate(60 93)"><tspan x="0" y="25">Friday</tspan></text>
      <g id="Repeat_Grid_6-4" data-name="Repeat Grid 6" class="cls-18" transform="translate(0 129)">
        <g transform="translate(0 -129)">
          <g id="ListItem-10" data-name="ListItem" transform="translate(0 129)">
            <rect id="Rectangle_4-10" data-name="Rectangle 4" class="cls-1" width="338" height="59"/>
            <g id="Text-10" data-name="Text">
              <text id="This_is_a_complex_noto-3" data-name="This is a complex noto" class="cls-19" transform="translate(60 12)"><tspan x="0" y="18">This is a complex noto</tspan></text>
              <text id="_dennis_tag1_tag2-7" data-name="@dennis #tag1 #tag2" class="cls-20" transform="translate(60 33)"><tspan x="0" y="11">@dennis #tag1 #tag2</tspan></text>
            </g>
            <g id="ICON_Done-10" data-name="ICON_Done" transform="translate(25 16)">
              <g id="Ellipse_10-10" data-name="Ellipse 10" class="cls-21">
                <circle class="cls-30" cx="11" cy="11" r="11"/>
                <circle class="cls-1" cx="11" cy="11" r="10.25"/>
              </g>
              <g id="Ellipse_11" data-name="Ellipse 11" class="cls-22" transform="translate(6 6)">
                <circle class="cls-30" cx="5" cy="5" r="5"/>
                <circle class="cls-1" cx="5" cy="5" r="4.5"/>
              </g>
            </g>
            <g id="ICON_Arrow-11" data-name="ICON_Arrow" transform="translate(314.148 34.607) rotate(180)">
              <rect id="Rectangle_22-11" data-name="Rectangle 22" class="cls-1" width="22" height="21"/>
              <path id="Path_37-11" data-name="Path 37" class="cls-23" d="M42.622,36.178l-5.965,5.965,5.965,5.965" transform="translate(-28.675 -32.001)"/>
            </g>
          </g>
        </g>
        <g transform="translate(0 -70)">
          <g id="ListItem-11" data-name="ListItem" transform="translate(0 129)">
            <rect id="Rectangle_4-11" data-name="Rectangle 4" class="cls-1" width="338" height="59"/>
            <g id="Text-11" data-name="Text">
              <text id="This_is_a_complex_noto-4" data-name="This is a complex noto" class="cls-19" transform="translate(60 12)"><tspan x="0" y="18">This is a complex noto</tspan></text>
              <text id="_dennis_tag1_tag2-8" data-name="@dennis #tag1 #tag2" class="cls-20" transform="translate(60 33)"><tspan x="0" y="11">@dennis #tag1 #tag2</tspan></text>
            </g>
            <g id="ICON_Done-11" data-name="ICON_Done" transform="translate(25 16)">
              <g id="Ellipse_10-11" data-name="Ellipse 10" class="cls-21">
                <circle class="cls-30" cx="11" cy="11" r="11"/>
                <circle class="cls-1" cx="11" cy="11" r="10.25"/>
              </g>
              <g id="Ellipse_11-2" data-name="Ellipse 11" class="cls-22" transform="translate(6 6)">
                <circle class="cls-30" cx="5" cy="5" r="5"/>
                <circle class="cls-1" cx="5" cy="5" r="4.5"/>
              </g>
            </g>
            <g id="ICON_Arrow-12" data-name="ICON_Arrow" transform="translate(314.148 34.607) rotate(180)">
              <rect id="Rectangle_22-12" data-name="Rectangle 22" class="cls-1" width="22" height="21"/>
              <path id="Path_37-12" data-name="Path 37" class="cls-23" d="M42.622,36.178l-5.965,5.965,5.965,5.965" transform="translate(-28.675 -32.001)"/>
            </g>
          </g>
        </g>
        <g transform="translate(0 -11)">
          <g id="ListItem-12" data-name="ListItem" transform="translate(0 129)">
            <rect id="Rectangle_4-12" data-name="Rectangle 4" class="cls-1" width="338" height="59"/>
            <g id="Text-12" data-name="Text">
              <text id="This_is_a_complex_noto-5" data-name="This is a complex noto" class="cls-19" transform="translate(60 12)"><tspan x="0" y="18">This is a complex noto</tspan></text>
              <text id="_dennis_tag1_tag2-9" data-name="@dennis #tag1 #tag2" class="cls-20" transform="translate(60 33)"><tspan x="0" y="11">@dennis #tag1 #tag2</tspan></text>
            </g>
            <g id="ICON_Done-12" data-name="ICON_Done" transform="translate(25 16)">
              <g id="Ellipse_10-12" data-name="Ellipse 10" class="cls-21">
                <circle class="cls-30" cx="11" cy="11" r="11"/>
                <circle class="cls-1" cx="11" cy="11" r="10.25"/>
              </g>
              <g id="Ellipse_11-3" data-name="Ellipse 11" class="cls-22" transform="translate(6 6)">
                <circle class="cls-30" cx="5" cy="5" r="5"/>
                <circle class="cls-1" cx="5" cy="5" r="4.5"/>
              </g>
            </g>
            <g id="ICON_Arrow-13" data-name="ICON_Arrow" transform="translate(314.148 34.607) rotate(180)">
              <rect id="Rectangle_22-13" data-name="Rectangle 22" class="cls-1" width="22" height="21"/>
              <path id="Path_37-13" data-name="Path 37" class="cls-23" d="M42.622,36.178l-5.965,5.965,5.965,5.965" transform="translate(-28.675 -32.001)"/>
            </g>
          </g>
        </g>
        <g transform="translate(0 48)">
          <g id="ListItem-13" data-name="ListItem" transform="translate(0 129)">
            <rect id="Rectangle_4-13" data-name="Rectangle 4" class="cls-1" width="338" height="59"/>
            <g id="Text-13" data-name="Text">
              <text id="This_is_a_complex_noto-6" data-name="This is a complex noto" class="cls-19" transform="translate(60 12)"><tspan x="0" y="18">This is a complex noto</tspan></text>
              <text id="_dennis_tag1_tag2-10" data-name="@dennis #tag1 #tag2" class="cls-20" transform="translate(60 33)"><tspan x="0" y="11">@dennis #tag1 #tag2</tspan></text>
            </g>
            <g id="ICON_Done-13" data-name="ICON_Done" transform="translate(25 16)">
              <g id="Ellipse_10-13" data-name="Ellipse 10" class="cls-21">
                <circle class="cls-30" cx="11" cy="11" r="11"/>
                <circle class="cls-1" cx="11" cy="11" r="10.25"/>
              </g>
              <g id="Ellipse_11-4" data-name="Ellipse 11" class="cls-22" transform="translate(6 6)">
                <circle class="cls-30" cx="5" cy="5" r="5"/>
                <circle class="cls-1" cx="5" cy="5" r="4.5"/>
              </g>
            </g>
            <g id="ICON_Arrow-14" data-name="ICON_Arrow" transform="translate(314.148 34.607) rotate(180)">
              <rect id="Rectangle_22-14" data-name="Rectangle 22" class="cls-1" width="22" height="21"/>
              <path id="Path_37-14" data-name="Path 37" class="cls-23" d="M42.622,36.178l-5.965,5.965,5.965,5.965" transform="translate(-28.675 -32.001)"/>
            </g>
          </g>
        </g>
      </g>
    </g>
    <g id="Bottom" transform="translate(0 757)">
      <path id="Path_36" data-name="Path 36" class="cls-24" d="M0,0H338V55H0Z"/>
      <g id="ICON_Plus" transform="translate(25 17)">
        <g id="Ellipse_7-2" data-name="Ellipse 7" class="cls-25">
          <circle class="cls-30" cx="11" cy="11" r="11"/>
          <circle class="cls-1" cx="11" cy="11" r="10.25"/>
        </g>
        <line id="Line_1" data-name="Line 1" class="cls-26" x1="9" transform="translate(6.5 11)"/>
        <line id="Line_2" data-name="Line 2" class="cls-26" x2="9" transform="translate(11 6.5) rotate(90)"/>
      </g>
      <g id="ICON_Sort" transform="translate(291 17)">
        <g id="Ellipse_7-3" data-name="Ellipse 7" class="cls-25">
          <circle class="cls-30" cx="11" cy="11" r="11"/>
          <circle class="cls-1" cx="11" cy="11" r="10.25"/>
        </g>
        <g id="Dots" transform="translate(-25 -774)">
          <path id="Path_17" data-name="Path 17" class="cls-27" d="M0,0H0" transform="translate(33 785.5) rotate(90)"/>
          <path id="Path_18" data-name="Path 18" class="cls-27" d="M0,0H0" transform="translate(36 785.5) rotate(90)"/>
          <path id="Path_19" data-name="Path 19" class="cls-27" d="M0,0H0" transform="translate(39 785.5) rotate(90)"/>
        </g>
      </g>
      <path id="HRLine" class="cls-28" d="M0,0H338" transform="translate(0 0.5)"/>
      <g id="ICON_Search" transform="translate(158 17)">
        <g id="Ellipse_7-4" data-name="Ellipse 7" class="cls-25">
          <circle class="cls-30" cx="11" cy="11" r="11"/>
          <circle class="cls-1" cx="11" cy="11" r="10.25"/>
        </g>
        <g id="Symbol-2" data-name="Symbol" transform="translate(-24.759 -775.751)">
          <g id="Group_17" data-name="Group 17" transform="translate(-0.244 1.5)">
            <path id="Path_26-2" data-name="Path 26" class="cls-25" d="M0,0V3.625" transform="translate(34.066 787.439) rotate(45)"/>
            <g id="Ellipse_8" data-name="Ellipse 8" class="cls-29" transform="translate(32.759 779.751)">
              <circle class="cls-30" cx="4.5" cy="4.5" r="4.5"/>
              <circle class="cls-1" cx="4.5" cy="4.5" r="3.75"/>
            </g>
          </g>
        </g>
      </g>
    </g>
  </g>
</svg>
