<svg xmlns="http://www.w3.org/2000/svg" xmlns:xlink="http://www.w3.org/1999/xlink" width="338" height="1271" viewBox="0 0 338 1271">
  <defs>
    <style>
      .cls-1, .cls-17, .cls-18, .cls-20, .cls-21, .cls-22, .cls-23, .cls-7 {
        fill: none;
      }

      .cls-2 {
        clip-path: url(#clip-Overview);
      }

      .cls-3 {
        clip-path: url(#clip-path);
      }

      .cls-14, .cls-16, .cls-4, .cls-8 {
        fill: #fff;
      }

      .cls-14, .cls-4 {
        font-size: 20px;
      }

      .cls-11, .cls-14, .cls-4, .cls-5 {
        font-family: SourceSerifPro-Regular, Source Serif Pro;
      }

      .cls-5, .cls-6 {
        fill: #ace3cf;
      }

      .cls-11, .cls-5 {
        font-size: 12px;
      }

      .cls-17, .cls-18, .cls-20, .cls-21, .cls-23, .cls-7 {
        stroke: #fff;
      }

      .cls-17, .cls-18, .cls-20, .cls-21, .cls-7 {
        stroke-linecap: round;
      }

      .cls-17, .cls-7 {
        stroke-linejoin: round;
      }

      .cls-21, .cls-7 {
        stroke-width: 2px;
      }

      .cls-8 {
        font-size: 24px;
      }

      .cls-16, .cls-8 {
        font-family: DMSerifDisplay-Regular, DM Serif Display;
      }

      .cls-9 {
        fill: #7c8c9d;
      }

      .cls-10 {
        fill: #4b6a8a;
      }

      .cls-11, .cls-12 {
        fill: #ffb1b1;
      }

      .cls-13 {
        fill: #83c6ae;
      }

      .cls-14 {
        letter-spacing: -0.2em;
      }

      .cls-15 {
        font-size: 11.666px;
        baseline-shift: 6.666000209254424;
      }

      .cls-16 {
        font-size: 28px;
      }

      .cls-17, .cls-20, .cls-23 {
        stroke-width: 1.5px;
      }

      .cls-18 {
        stroke-width: 2.5px;
      }

      .cls-19 {
        opacity: 0;
      }

      .cls-22 {
        stroke: #a5dfc9;
      }

      .cls-24 {
        stroke: none;
      }
    </style>
    <clipPath id="clip-path">
      <rect class="cls-1" width="338" height="884"/>
    </clipPath>
    <clipPath id="clip-Overview">
      <rect width="338" height="1271"/>
    </clipPath>
  </defs>
  <g id="Overview" class="cls-2">
    <rect class="cls-9" width="338" height="1271"/>
    <g id="LIST_USER">
      <g id="Repeat_Grid_11" data-name="Repeat Grid 11" class="cls-3" transform="translate(0 129)">
        <g transform="translate(0 -129)">
          <g id="LIST_USER-2" data-name="LIST_USER" transform="translate(0 129)">
            <rect id="Rectangle_8" data-name="Rectangle 8" class="cls-1" width="338" height="59"/>
            <g id="Group_10" data-name="Group 10" transform="translate(4.663 -95)">
              <text id="This_is_a_user_list" data-name="This is a user list" class="cls-4" transform="translate(25.337 107)"><tspan x="0" y="18">This is a user list</tspan></text>
              <text id="_19_notos_are_fine" data-name="19 notos are fine" class="cls-5" transform="translate(39.337 128)"><tspan x="0" y="11">19 notos are fine</tspan></text>
              <path id="Path_11" data-name="Path 11" class="cls-6" d="M4,0A4,4,0,1,1,0,4,4,4,0,0,1,4,0Z" transform="translate(26 132)"/>
            </g>
            <g id="ICON_Arrow" transform="translate(314.947 35.108) rotate(180)">
              <rect id="Rectangle_22" data-name="Rectangle 22" class="cls-1" width="22" height="21"/>
              <path id="Path_37" data-name="Path 37" class="cls-7" d="M42.622,36.178l-5.965,5.965,5.965,5.965" transform="translate(-28.675 -32.001)"/>
            </g>
          </g>
        </g>
        <g transform="translate(0 -70)">
          <g id="LIST_USER-3" data-name="LIST_USER" transform="translate(0 129)">
            <rect id="Rectangle_8-2" data-name="Rectangle 8" class="cls-1" width="338" height="59"/>
            <g id="Group_10-2" data-name="Group 10" transform="translate(4.663 -95)">
              <text id="This_is_a_user_list-2" data-name="This is a user list" class="cls-4" transform="translate(25.337 107)"><tspan x="0" y="18">This is a user list</tspan></text>
              <text id="_19_notos_are_fine-2" data-name="19 notos are fine" class="cls-5" transform="translate(39.337 128)"><tspan x="0" y="11">19 notos are fine</tspan></text>
              <path id="Path_11-2" data-name="Path 11" class="cls-6" d="M4,0A4,4,0,1,1,0,4,4,4,0,0,1,4,0Z" transform="translate(26 132)"/>
            </g>
            <g id="ICON_Arrow-2" data-name="ICON_Arrow" transform="translate(314.947 35.108) rotate(180)">
              <rect id="Rectangle_22-2" data-name="Rectangle 22" class="cls-1" width="22" height="21"/>
              <path id="Path_37-2" data-name="Path 37" class="cls-7" d="M42.622,36.178l-5.965,5.965,5.965,5.965" transform="translate(-28.675 -32.001)"/>
            </g>
          </g>
        </g>
        <g transform="translate(0 -11)">
          <g id="LIST_USER-4" data-name="LIST_USER" transform="translate(0 129)">
            <rect id="Rectangle_8-3" data-name="Rectangle 8" class="cls-1" width="338" height="59"/>
            <g id="Group_10-3" data-name="Group 10" transform="translate(4.663 -95)">
              <text id="This_is_a_user_list-3" data-name="This is a user list" class="cls-4" transform="translate(25.337 107)"><tspan x="0" y="18">This is a user list</tspan></text>
              <text id="_19_notos_are_fine-3" data-name="19 notos are fine" class="cls-5" transform="translate(39.337 128)"><tspan x="0" y="11">19 notos are fine</tspan></text>
              <path id="Path_11-3" data-name="Path 11" class="cls-6" d="M4,0A4,4,0,1,1,0,4,4,4,0,0,1,4,0Z" transform="translate(26 132)"/>
            </g>
            <g id="ICON_Arrow-3" data-name="ICON_Arrow" transform="translate(314.947 35.108) rotate(180)">
              <rect id="Rectangle_22-3" data-name="Rectangle 22" class="cls-1" width="22" height="21"/>
              <path id="Path_37-3" data-name="Path 37" class="cls-7" d="M42.622,36.178l-5.965,5.965,5.965,5.965" transform="translate(-28.675 -32.001)"/>
            </g>
          </g>
        </g>
        <g transform="translate(0 48)">
          <g id="LIST_USER-5" data-name="LIST_USER" transform="translate(0 129)">
            <rect id="Rectangle_8-4" data-name="Rectangle 8" class="cls-1" width="338" height="59"/>
            <g id="Group_10-4" data-name="Group 10" transform="translate(4.663 -95)">
              <text id="This_is_a_user_list-4" data-name="This is a user list" class="cls-4" transform="translate(25.337 107)"><tspan x="0" y="18">This is a user list</tspan></text>
              <text id="_19_notos_are_fine-4" data-name="19 notos are fine" class="cls-5" transform="translate(39.337 128)"><tspan x="0" y="11">19 notos are fine</tspan></text>
              <path id="Path_11-4" data-name="Path 11" class="cls-6" d="M4,0A4,4,0,1,1,0,4,4,4,0,0,1,4,0Z" transform="translate(26 132)"/>
            </g>
            <g id="ICON_Arrow-4" data-name="ICON_Arrow" transform="translate(314.947 35.108) rotate(180)">
              <rect id="Rectangle_22-4" data-name="Rectangle 22" class="cls-1" width="22" height="21"/>
              <path id="Path_37-4" data-name="Path 37" class="cls-7" d="M42.622,36.178l-5.965,5.965,5.965,5.965" transform="translate(-28.675 -32.001)"/>
            </g>
          </g>
        </g>
        <g transform="translate(0 107)">
          <g id="LIST_USER-6" data-name="LIST_USER" transform="translate(0 129)">
            <rect id="Rectangle_8-5" data-name="Rectangle 8" class="cls-1" width="338" height="59"/>
            <g id="Group_10-5" data-name="Group 10" transform="translate(4.663 -95)">
              <text id="This_is_a_user_list-5" data-name="This is a user list" class="cls-4" transform="translate(25.337 107)"><tspan x="0" y="18">This is a user list</tspan></text>
              <text id="_19_notos_are_fine-5" data-name="19 notos are fine" class="cls-5" transform="translate(39.337 128)"><tspan x="0" y="11">19 notos are fine</tspan></text>
              <path id="Path_11-5" data-name="Path 11" class="cls-6" d="M4,0A4,4,0,1,1,0,4,4,4,0,0,1,4,0Z" transform="translate(26 132)"/>
            </g>
            <g id="ICON_Arrow-5" data-name="ICON_Arrow" transform="translate(314.947 35.108) rotate(180)">
              <rect id="Rectangle_22-5" data-name="Rectangle 22" class="cls-1" width="22" height="21"/>
              <path id="Path_37-5" data-name="Path 37" class="cls-7" d="M42.622,36.178l-5.965,5.965,5.965,5.965" transform="translate(-28.675 -32.001)"/>
            </g>
          </g>
        </g>
        <g transform="translate(0 166)">
          <g id="LIST_USER-7" data-name="LIST_USER" transform="translate(0 129)">
            <rect id="Rectangle_8-6" data-name="Rectangle 8" class="cls-1" width="338" height="59"/>
            <g id="Group_10-6" data-name="Group 10" transform="translate(4.663 -95)">
              <text id="This_is_a_user_list-6" data-name="This is a user list" class="cls-4" transform="translate(25.337 107)"><tspan x="0" y="18">This is a user list</tspan></text>
              <text id="_19_notos_are_fine-6" data-name="19 notos are fine" class="cls-5" transform="translate(39.337 128)"><tspan x="0" y="11">19 notos are fine</tspan></text>
              <path id="Path_11-6" data-name="Path 11" class="cls-6" d="M4,0A4,4,0,1,1,0,4,4,4,0,0,1,4,0Z" transform="translate(26 132)"/>
            </g>
            <g id="ICON_Arrow-6" data-name="ICON_Arrow" transform="translate(314.947 35.108) rotate(180)">
              <rect id="Rectangle_22-6" data-name="Rectangle 22" class="cls-1" width="22" height="21"/>
              <path id="Path_37-6" data-name="Path 37" class="cls-7" d="M42.622,36.178l-5.965,5.965,5.965,5.965" transform="translate(-28.675 -32.001)"/>
            </g>
          </g>
        </g>
        <g transform="translate(0 225)">
          <g id="LIST_USER-8" data-name="LIST_USER" transform="translate(0 129)">
            <rect id="Rectangle_8-7" data-name="Rectangle 8" class="cls-1" width="338" height="59"/>
            <g id="Group_10-7" data-name="Group 10" transform="translate(4.663 -95)">
              <text id="This_is_a_user_list-7" data-name="This is a user list" class="cls-4" transform="translate(25.337 107)"><tspan x="0" y="18">This is a user list</tspan></text>
              <text id="_19_notos_are_fine-7" data-name="19 notos are fine" class="cls-5" transform="translate(39.337 128)"><tspan x="0" y="11">19 notos are fine</tspan></text>
              <path id="Path_11-7" data-name="Path 11" class="cls-6" d="M4,0A4,4,0,1,1,0,4,4,4,0,0,1,4,0Z" transform="translate(26 132)"/>
            </g>
            <g id="ICON_Arrow-7" data-name="ICON_Arrow" transform="translate(314.947 35.108) rotate(180)">
              <rect id="Rectangle_22-7" data-name="Rectangle 22" class="cls-1" width="22" height="21"/>
              <path id="Path_37-7" data-name="Path 37" class="cls-7" d="M42.622,36.178l-5.965,5.965,5.965,5.965" transform="translate(-28.675 -32.001)"/>
            </g>
          </g>
        </g>
        <g transform="translate(0 284)">
          <g id="LIST_USER-9" data-name="LIST_USER" transform="translate(0 129)">
            <rect id="Rectangle_8-8" data-name="Rectangle 8" class="cls-1" width="338" height="59"/>
            <g id="Group_10-8" data-name="Group 10" transform="translate(4.663 -95)">
              <text id="This_is_a_user_list-8" data-name="This is a user list" class="cls-4" transform="translate(25.337 107)"><tspan x="0" y="18">This is a user list</tspan></text>
              <text id="_19_notos_are_fine-8" data-name="19 notos are fine" class="cls-5" transform="translate(39.337 128)"><tspan x="0" y="11">19 notos are fine</tspan></text>
              <path id="Path_11-8" data-name="Path 11" class="cls-6" d="M4,0A4,4,0,1,1,0,4,4,4,0,0,1,4,0Z" transform="translate(26 132)"/>
            </g>
            <g id="ICON_Arrow-8" data-name="ICON_Arrow" transform="translate(314.947 35.108) rotate(180)">
              <rect id="Rectangle_22-8" data-name="Rectangle 22" class="cls-1" width="22" height="21"/>
              <path id="Path_37-8" data-name="Path 37" class="cls-7" d="M42.622,36.178l-5.965,5.965,5.965,5.965" transform="translate(-28.675 -32.001)"/>
            </g>
          </g>
        </g>
        <g transform="translate(0 343)">
          <g id="LIST_USER-10" data-name="LIST_USER" transform="translate(0 129)">
            <rect id="Rectangle_8-9" data-name="Rectangle 8" class="cls-1" width="338" height="59"/>
            <g id="Group_10-9" data-name="Group 10" transform="translate(4.663 -95)">
              <text id="This_is_a_user_list-9" data-name="This is a user list" class="cls-4" transform="translate(25.337 107)"><tspan x="0" y="18">This is a user list</tspan></text>
              <text id="_19_notos_are_fine-9" data-name="19 notos are fine" class="cls-5" transform="translate(39.337 128)"><tspan x="0" y="11">19 notos are fine</tspan></text>
              <path id="Path_11-9" data-name="Path 11" class="cls-6" d="M4,0A4,4,0,1,1,0,4,4,4,0,0,1,4,0Z" transform="translate(26 132)"/>
            </g>
            <g id="ICON_Arrow-9" data-name="ICON_Arrow" transform="translate(314.947 35.108) rotate(180)">
              <rect id="Rectangle_22-9" data-name="Rectangle 22" class="cls-1" width="22" height="21"/>
              <path id="Path_37-9" data-name="Path 37" class="cls-7" d="M42.622,36.178l-5.965,5.965,5.965,5.965" transform="translate(-28.675 -32.001)"/>
            </g>
          </g>
        </g>
        <g transform="translate(0 402)">
          <g id="LIST_USER-11" data-name="LIST_USER" transform="translate(0 129)">
            <rect id="Rectangle_8-10" data-name="Rectangle 8" class="cls-1" width="338" height="59"/>
            <g id="Group_10-10" data-name="Group 10" transform="translate(4.663 -95)">
              <text id="This_is_a_user_list-10" data-name="This is a user list" class="cls-4" transform="translate(25.337 107)"><tspan x="0" y="18">This is a user list</tspan></text>
              <text id="_19_notos_are_fine-10" data-name="19 notos are fine" class="cls-5" transform="translate(39.337 128)"><tspan x="0" y="11">19 notos are fine</tspan></text>
              <path id="Path_11-10" data-name="Path 11" class="cls-6" d="M4,0A4,4,0,1,1,0,4,4,4,0,0,1,4,0Z" transform="translate(26 132)"/>
            </g>
            <g id="ICON_Arrow-10" data-name="ICON_Arrow" transform="translate(314.947 35.108) rotate(180)">
              <rect id="Rectangle_22-10" data-name="Rectangle 22" class="cls-1" width="22" height="21"/>
              <path id="Path_37-10" data-name="Path 37" class="cls-7" d="M42.622,36.178l-5.965,5.965,5.965,5.965" transform="translate(-28.675 -32.001)"/>
            </g>
          </g>
        </g>
        <g transform="translate(0 461)">
          <g id="LIST_USER-12" data-name="LIST_USER" transform="translate(0 129)">
            <rect id="Rectangle_8-11" data-name="Rectangle 8" class="cls-1" width="338" height="59"/>
            <g id="Group_10-11" data-name="Group 10" transform="translate(4.663 -95)">
              <text id="This_is_a_user_list-11" data-name="This is a user list" class="cls-4" transform="translate(25.337 107)"><tspan x="0" y="18">This is a user list</tspan></text>
              <text id="_19_notos_are_fine-11" data-name="19 notos are fine" class="cls-5" transform="translate(39.337 128)"><tspan x="0" y="11">19 notos are fine</tspan></text>
              <path id="Path_11-11" data-name="Path 11" class="cls-6" d="M4,0A4,4,0,1,1,0,4,4,4,0,0,1,4,0Z" transform="translate(26 132)"/>
            </g>
            <g id="ICON_Arrow-11" data-name="ICON_Arrow" transform="translate(314.947 35.108) rotate(180)">
              <rect id="Rectangle_22-11" data-name="Rectangle 22" class="cls-1" width="22" height="21"/>
              <path id="Path_37-11" data-name="Path 37" class="cls-7" d="M42.622,36.178l-5.965,5.965,5.965,5.965" transform="translate(-28.675 -32.001)"/>
            </g>
          </g>
        </g>
        <g transform="translate(0 520)">
          <g id="LIST_USER-13" data-name="LIST_USER" transform="translate(0 129)">
            <rect id="Rectangle_8-12" data-name="Rectangle 8" class="cls-1" width="338" height="59"/>
            <g id="Group_10-12" data-name="Group 10" transform="translate(4.663 -95)">
              <text id="This_is_a_user_list-12" data-name="This is a user list" class="cls-4" transform="translate(25.337 107)"><tspan x="0" y="18">This is a user list</tspan></text>
              <text id="_19_notos_are_fine-12" data-name="19 notos are fine" class="cls-5" transform="translate(39.337 128)"><tspan x="0" y="11">19 notos are fine</tspan></text>
              <path id="Path_11-12" data-name="Path 11" class="cls-6" d="M4,0A4,4,0,1,1,0,4,4,4,0,0,1,4,0Z" transform="translate(26 132)"/>
            </g>
            <g id="ICON_Arrow-12" data-name="ICON_Arrow" transform="translate(314.947 35.108) rotate(180)">
              <rect id="Rectangle_22-12" data-name="Rectangle 22" class="cls-1" width="22" height="21"/>
              <path id="Path_37-12" data-name="Path 37" class="cls-7" d="M42.622,36.178l-5.965,5.965,5.965,5.965" transform="translate(-28.675 -32.001)"/>
            </g>
          </g>
        </g>
        <g transform="translate(0 579)">
          <g id="LIST_USER-14" data-name="LIST_USER" transform="translate(0 129)">
            <rect id="Rectangle_8-13" data-name="Rectangle 8" class="cls-1" width="338" height="59"/>
            <g id="Group_10-13" data-name="Group 10" transform="translate(4.663 -95)">
              <text id="This_is_a_user_list-13" data-name="This is a user list" class="cls-4" transform="translate(25.337 107)"><tspan x="0" y="18">This is a user list</tspan></text>
              <text id="_19_notos_are_fine-13" data-name="19 notos are fine" class="cls-5" transform="translate(39.337 128)"><tspan x="0" y="11">19 notos are fine</tspan></text>
              <path id="Path_11-13" data-name="Path 11" class="cls-6" d="M4,0A4,4,0,1,1,0,4,4,4,0,0,1,4,0Z" transform="translate(26 132)"/>
            </g>
            <g id="ICON_Arrow-13" data-name="ICON_Arrow" transform="translate(314.947 35.108) rotate(180)">
              <rect id="Rectangle_22-13" data-name="Rectangle 22" class="cls-1" width="22" height="21"/>
              <path id="Path_37-13" data-name="Path 37" class="cls-7" d="M42.622,36.178l-5.965,5.965,5.965,5.965" transform="translate(-28.675 -32.001)"/>
            </g>
          </g>
        </g>
        <g transform="translate(0 638)">
          <g id="LIST_USER-15" data-name="LIST_USER" transform="translate(0 129)">
            <rect id="Rectangle_8-14" data-name="Rectangle 8" class="cls-1" width="338" height="59"/>
            <g id="Group_10-14" data-name="Group 10" transform="translate(4.663 -95)">
              <text id="This_is_a_user_list-14" data-name="This is a user list" class="cls-4" transform="translate(25.337 107)"><tspan x="0" y="18">This is a user list</tspan></text>
              <text id="_19_notos_are_fine-14" data-name="19 notos are fine" class="cls-5" transform="translate(39.337 128)"><tspan x="0" y="11">19 notos are fine</tspan></text>
              <path id="Path_11-14" data-name="Path 11" class="cls-6" d="M4,0A4,4,0,1,1,0,4,4,4,0,0,1,4,0Z" transform="translate(26 132)"/>
            </g>
            <g id="ICON_Arrow-14" data-name="ICON_Arrow" transform="translate(314.947 35.108) rotate(180)">
              <rect id="Rectangle_22-14" data-name="Rectangle 22" class="cls-1" width="22" height="21"/>
              <path id="Path_37-14" data-name="Path 37" class="cls-7" d="M42.622,36.178l-5.965,5.965,5.965,5.965" transform="translate(-28.675 -32.001)"/>
            </g>
          </g>
        </g>
        <g transform="translate(0 697)">
          <g id="LIST_USER-16" data-name="LIST_USER" transform="translate(0 129)">
            <rect id="Rectangle_8-15" data-name="Rectangle 8" class="cls-1" width="338" height="59"/>
            <g id="Group_10-15" data-name="Group 10" transform="translate(4.663 -95)">
              <text id="This_is_a_user_list-15" data-name="This is a user list" class="cls-4" transform="translate(25.337 107)"><tspan x="0" y="18">This is a user list</tspan></text>
              <text id="_19_notos_are_fine-15" data-name="19 notos are fine" class="cls-5" transform="translate(39.337 128)"><tspan x="0" y="11">19 notos are fine</tspan></text>
              <path id="Path_11-15" data-name="Path 11" class="cls-6" d="M4,0A4,4,0,1,1,0,4,4,4,0,0,1,4,0Z" transform="translate(26 132)"/>
            </g>
            <g id="ICON_Arrow-15" data-name="ICON_Arrow" transform="translate(314.947 35.108) rotate(180)">
              <rect id="Rectangle_22-15" data-name="Rectangle 22" class="cls-1" width="22" height="21"/>
              <path id="Path_37-15" data-name="Path 37" class="cls-7" d="M42.622,36.178l-5.965,5.965,5.965,5.965" transform="translate(-28.675 -32.001)"/>
            </g>
          </g>
        </g>
      </g>
      <text id="Lists" class="cls-8" transform="translate(31 93)"><tspan x="0" y="25">Lists</tspan></text>
    </g>
    <g id="LIST_PREDEFINED" transform="translate(0 1)">
      <rect id="Rectangle_21" data-name="Rectangle 21" class="cls-9" width="338" height="239" transform="translate(0 517)"/>
      <g id="LIST_PREDEFINED-2" data-name="LIST_PREDEFINED" transform="translate(0 517)">
        <rect id="Rectangle_10" data-name="Rectangle 10" class="cls-10" width="338" height="59"/>
        <g id="Group_11" data-name="Group 11" transform="translate(5.561 -95)">
          <text id="Today" class="cls-4" transform="translate(25.439 107)"><tspan x="0" y="18">Today</tspan></text>
          <text id="_5_notos_are_due" data-name="5 notos are due" class="cls-11" transform="translate(39.439 128)"><tspan x="0" y="11">5 notos are due</tspan></text>
          <path id="Path_11-16" data-name="Path 11" class="cls-12" d="M4,0A4,4,0,1,1,0,4,4,4,0,0,1,4,0Z" transform="translate(26 132)"/>
        </g>
        <g id="ICON_Arrow-16" data-name="ICON_Arrow" transform="translate(314.947 35.108) rotate(180)">
          <rect id="Rectangle_22-16" data-name="Rectangle 22" class="cls-1" width="22" height="21"/>
          <path id="Path_37-16" data-name="Path 37" class="cls-7" d="M42.622,36.178l-5.965,5.965,5.965,5.965" transform="translate(-28.675 -32.001)"/>
        </g>
      </g>
      <g id="LIST_PREDEFINED-3" data-name="LIST_PREDEFINED" transform="translate(0 577)">
        <rect id="Rectangle_10-2" data-name="Rectangle 10" class="cls-10" width="338" height="59"/>
        <g id="Group_11-2" data-name="Group 11" transform="translate(5.561 -95)">
          <text id="Within_a_week" data-name="Within a week" class="cls-4" transform="translate(25.439 107)"><tspan x="0" y="18">Within a week</tspan></text>
          <text id="_28_notos" data-name="28 notos" class="cls-5" transform="translate(26.439 128)"><tspan x="0" y="11">28 notos</tspan></text>
        </g>
        <g id="ICON_Arrow-17" data-name="ICON_Arrow" transform="translate(314.947 35.108) rotate(180)">
          <rect id="Rectangle_22-17" data-name="Rectangle 22" class="cls-1" width="22" height="21"/>
          <path id="Path_37-17" data-name="Path 37" class="cls-7" d="M42.622,36.178l-5.965,5.965,5.965,5.965" transform="translate(-28.675 -32.001)"/>
        </g>
      </g>
      <g id="LIST_PREDEFINED-4" data-name="LIST_PREDEFINED" transform="translate(0 637)">
        <rect id="Rectangle_10-3" data-name="Rectangle 10" class="cls-10" width="338" height="59"/>
        <g id="Group_11-3" data-name="Group 11" transform="translate(5.561 -95)">
          <text id="Priority" class="cls-4" transform="translate(25.439 107)"><tspan x="0" y="18">Priority</tspan></text>
          <text id="_8_notos_are_fine" data-name="8 notos are fine" class="cls-5" transform="translate(39.439 128)"><tspan x="0" y="11">8 notos are fine</tspan></text>
          <path id="Path_11-17" data-name="Path 11" class="cls-6" d="M4,0A4,4,0,1,1,0,4,4,4,0,0,1,4,0Z" transform="translate(26 132)"/>
        </g>
        <g id="ICON_Arrow-18" data-name="ICON_Arrow" transform="translate(314.947 35.108) rotate(180)">
          <rect id="Rectangle_22-18" data-name="Rectangle 22" class="cls-1" width="22" height="21"/>
          <path id="Path_37-18" data-name="Path 37" class="cls-7" d="M42.622,36.178l-5.965,5.965,5.965,5.965" transform="translate(-28.675 -32.001)"/>
        </g>
      </g>
      <g id="LIST_PREDEFINED-5" data-name="LIST_PREDEFINED" transform="translate(0 697)">
        <rect id="Rectangle_10-4" data-name="Rectangle 10" class="cls-10" width="338" height="59"/>
        <g id="Group_11-4" data-name="Group 11" transform="translate(5.561 -95)">
          <text id="All_NoTos" data-name="All NoTos" class="cls-4" transform="translate(25.439 107)"><tspan x="0" y="18">All NoTos</tspan></text>
          <text id="_217_notos" data-name="217 notos" class="cls-5" transform="translate(26.439 128)"><tspan x="0" y="11">217 notos</tspan></text>
        </g>
        <g id="ICON_Arrow-19" data-name="ICON_Arrow" transform="translate(314.947 35.108) rotate(180)">
          <rect id="Rectangle_22-19" data-name="Rectangle 22" class="cls-1" width="22" height="21"/>
          <path id="Path_37-19" data-name="Path 37" class="cls-7" d="M42.622,36.178l-5.965,5.965,5.965,5.965" transform="translate(-28.675 -32.001)"/>
        </g>
      </g>
    </g>
    <g id="Header">
      <rect id="Rectangle_6" data-name="Rectangle 6" class="cls-1" width="338" height="78"/>
      <g id="Logo" transform="translate(25 26.5)">
        <rect id="Rectangle_7" data-name="Rectangle 7" class="cls-13" width="24" height="24"/>
        <text id="N_t" data-name="N     t" class="cls-14" transform="translate(3 18.5)"><tspan x="0" y="0" xml:space="preserve">N     </tspan><tspan class="cls-15" y="0">t</tspan></text>
      </g>
      <text id="Make_it_so" data-name="Make it so" class="cls-16" transform="translate(60 50)"><tspan x="0" y="0">Make it so</tspan></text>
      <g id="ICON_Settings2" transform="translate(291 29)">
        <g id="Ellipse_7" data-name="Ellipse 7" class="cls-17">
          <circle class="cls-24" cx="11" cy="11" r="11"/>
          <circle class="cls-1" cx="11" cy="11" r="10.25"/>
        </g>
        <g id="Symbol" transform="translate(-27.813 -775.751)">
          <path id="Path_15" data-name="Path 15" class="cls-17" d="M0,4.833V8.788" transform="translate(44.101 782.751) rotate(90)"/>
          <path id="Path_24" data-name="Path 24" class="cls-17" d="M0,0V.74" transform="translate(36.052 790.752) rotate(90)"/>
          <path id="Path_26" data-name="Path 26" class="cls-17" d="M0,0V3.987" transform="translate(42.413 786.733) rotate(90)"/>
          <path id="Path_28" data-name="Path 28" class="cls-18" d="M42.117,782.751h0" transform="translate(-0.194)"/>
          <path id="Path_29" data-name="Path 29" class="cls-18" d="M42.117,782.751h0" transform="translate(-3.354 8)"/>
          <path id="Path_30" data-name="Path 30" class="cls-17" d="M0,0V.963" transform="translate(42.413 790.752) rotate(90)"/>
          <path id="Path_31" data-name="Path 31" class="cls-18" d="M42.117,782.751h0" transform="translate(-6.354 3.98)"/>
        </g>
      </g>
      <g id="ICON_Arrow-20" data-name="ICON_Arrow" class="cls-19" transform="translate(24.017 30.822)">
        <rect id="Rectangle_22-20" data-name="Rectangle 22" class="cls-1" width="22" height="21"/>
        <path id="Path_37-20" data-name="Path 37" class="cls-7" d="M42.622,36.178l-5.965,5.965,5.965,5.965" transform="translate(-28.675 -32.001)"/>
      </g>
    </g>
    <g id="Bottom" transform="translate(0 757)">
      <path id="Path_36" data-name="Path 36" class="cls-13" d="M0,0H338V55H0Z"/>
      <g id="ICON_Plus" transform="translate(25 17)">
        <g id="Ellipse_7-2" data-name="Ellipse 7" class="cls-17">
          <circle class="cls-24" cx="11" cy="11" r="11"/>
          <circle class="cls-1" cx="11" cy="11" r="10.25"/>
        </g>
        <line id="Line_1" data-name="Line 1" class="cls-20" x1="9" transform="translate(6.5 11)"/>
        <line id="Line_2" data-name="Line 2" class="cls-20" x2="9" transform="translate(11 6.5) rotate(90)"/>
      </g>
      <g id="ICON_Sort" transform="translate(291 17)">
        <g id="Ellipse_7-3" data-name="Ellipse 7" class="cls-17">
          <circle class="cls-24" cx="11" cy="11" r="11"/>
          <circle class="cls-1" cx="11" cy="11" r="10.25"/>
        </g>
        <g id="Dots" transform="translate(-25 -774)">
          <path id="Path_17" data-name="Path 17" class="cls-21" d="M0,0H0" transform="translate(33 785.5) rotate(90)"/>
          <path id="Path_18" data-name="Path 18" class="cls-21" d="M0,0H0" transform="translate(36 785.5) rotate(90)"/>
          <path id="Path_19" data-name="Path 19" class="cls-21" d="M0,0H0" transform="translate(39 785.5) rotate(90)"/>
        </g>
      </g>
      <path id="HRLine" class="cls-22" d="M0,0H338" transform="translate(0 0.5)"/>
      <g id="ICON_Search" transform="translate(158 17)">
        <g id="Ellipse_7-4" data-name="Ellipse 7" class="cls-17">
          <circle class="cls-24" cx="11" cy="11" r="11"/>
          <circle class="cls-1" cx="11" cy="11" r="10.25"/>
        </g>
        <g id="Symbol-2" data-name="Symbol" transform="translate(-24.759 -775.751)">
          <g id="Group_17" data-name="Group 17" transform="translate(-0.244 1.5)">
            <path id="Path_26-2" data-name="Path 26" class="cls-17" d="M0,0V3.625" transform="translate(34.066 787.439) rotate(45)"/>
            <g id="Ellipse_8" data-name="Ellipse 8" class="cls-23" transform="translate(32.759 779.751)">
              <circle class="cls-24" cx="4.5" cy="4.5" r="4.5"/>
              <circle class="cls-1" cx="4.5" cy="4.5" r="3.75"/>
            </g>
          </g>
        </g>
      </g>
    </g>
  </g>
</svg>
