<svg xmlns="http://www.w3.org/2000/svg" xmlns:xlink="http://www.w3.org/1999/xlink" width="338" height="1134" viewBox="0 0 338 1134">
  <defs>
    <style>
      .cls-1, .cls-6, .cls-8 {
        fill: none;
      }

      .cls-2 {
        clip-path: url(#clip-Search);
      }

      .cls-3 {
        clip-path: url(#clip-path);
      }

      .cls-4, .cls-5 {
        fill: #fff;
        font-family: SourceSerifPro-Regular, Source Serif Pro;
      }

      .cls-4 {
        font-size: 20px;
      }

      .cls-5 {
        font-size: 12px;
      }

      .cls-6, .cls-8 {
        stroke: #fff;
      }

      .cls-6 {
        stroke-width: 1.5px;
      }

      .cls-7 {
        opacity: 0.998;
      }

      .cls-8 {
        stroke-linecap: round;
        stroke-linejoin: round;
        stroke-width: 2px;
      }

      .cls-9 {
        fill: #4b6a8a;
      }

      .cls-10 {
        clip-path: url(#clip-path-2);
      }

      .cls-11 {
        stroke: none;
      }

      .cls-12 {
        fill: #7c8c9d;
      }
    </style>
    <clipPath id="clip-path">
      <rect class="cls-1" width="338" height="1012"/>
    </clipPath>
    <clipPath id="clip-path-2">
      <rect class="cls-1" width="278.965" height="23"/>
    </clipPath>
    <clipPath id="clip-Search">
      <rect width="338" height="1134"/>
    </clipPath>
  </defs>
  <g id="Search" class="cls-2">
    <rect class="cls-12" width="338" height="1134"/>
    <g id="Repeat_Grid_4" data-name="Repeat Grid 4" class="cls-3" transform="translate(0 88)">
      <g transform="translate(0 -101)">
        <g id="ListItem" transform="translate(0 101)">
          <rect id="Rectangle_4" data-name="Rectangle 4" class="cls-1" width="338" height="59"/>
          <g id="Text">
            <text id="Search_result" data-name="Search result" class="cls-4" transform="translate(60 12)"><tspan x="0" y="18">Search result</tspan></text>
            <text id="_dennis_tag1_tag2" data-name="@dennis #tag1 #tag2" class="cls-5" transform="translate(60 33)"><tspan x="0" y="11">@dennis #tag1 #tag2</tspan></text>
          </g>
          <g id="ICON_Done" transform="translate(25 16)">
            <g id="Ellipse_10" data-name="Ellipse 10" class="cls-6">
              <circle class="cls-11" cx="11" cy="11" r="11"/>
              <circle class="cls-1" cx="11" cy="11" r="10.25"/>
            </g>
          </g>
          <g id="ICON_Arrow" class="cls-7" transform="translate(314.148 34.607) rotate(180)">
            <rect id="Rectangle_22" data-name="Rectangle 22" class="cls-1" width="22" height="21"/>
            <path id="Path_37" data-name="Path 37" class="cls-8" d="M42.622,36.178l-5.965,5.965,5.965,5.965" transform="translate(-28.675 -32.001)"/>
          </g>
        </g>
      </g>
      <g transform="translate(0 -42)">
        <g id="ListItem-2" data-name="ListItem" transform="translate(0 101)">
          <rect id="Rectangle_4-2" data-name="Rectangle 4" class="cls-1" width="338" height="59"/>
          <g id="Text-2" data-name="Text">
            <text id="Search_result-2" data-name="Search result" class="cls-4" transform="translate(60 12)"><tspan x="0" y="18">Search result</tspan></text>
            <text id="_dennis_tag1_tag2-2" data-name="@dennis #tag1 #tag2" class="cls-5" transform="translate(60 33)"><tspan x="0" y="11">@dennis #tag1 #tag2</tspan></text>
          </g>
          <g id="ICON_Done-2" data-name="ICON_Done" transform="translate(25 16)">
            <g id="Ellipse_10-2" data-name="Ellipse 10" class="cls-6">
              <circle class="cls-11" cx="11" cy="11" r="11"/>
              <circle class="cls-1" cx="11" cy="11" r="10.25"/>
            </g>
          </g>
          <g id="ICON_Arrow-2" data-name="ICON_Arrow" class="cls-7" transform="translate(314.148 34.607) rotate(180)">
            <rect id="Rectangle_22-2" data-name="Rectangle 22" class="cls-1" width="22" height="21"/>
            <path id="Path_37-2" data-name="Path 37" class="cls-8" d="M42.622,36.178l-5.965,5.965,5.965,5.965" transform="translate(-28.675 -32.001)"/>
          </g>
        </g>
      </g>
      <g transform="translate(0 17)">
        <g id="ListItem-3" data-name="ListItem" transform="translate(0 101)">
          <rect id="Rectangle_4-3" data-name="Rectangle 4" class="cls-1" width="338" height="59"/>
          <g id="Text-3" data-name="Text">
            <text id="Search_result-3" data-name="Search result" class="cls-4" transform="translate(60 12)"><tspan x="0" y="18">Search result</tspan></text>
            <text id="_dennis_tag1_tag2-3" data-name="@dennis #tag1 #tag2" class="cls-5" transform="translate(60 33)"><tspan x="0" y="11">@dennis #tag1 #tag2</tspan></text>
          </g>
          <g id="ICON_Done-3" data-name="ICON_Done" transform="translate(25 16)">
            <g id="Ellipse_10-3" data-name="Ellipse 10" class="cls-6">
              <circle class="cls-11" cx="11" cy="11" r="11"/>
              <circle class="cls-1" cx="11" cy="11" r="10.25"/>
            </g>
          </g>
          <g id="ICON_Arrow-3" data-name="ICON_Arrow" class="cls-7" transform="translate(314.148 34.607) rotate(180)">
            <rect id="Rectangle_22-3" data-name="Rectangle 22" class="cls-1" width="22" height="21"/>
            <path id="Path_37-3" data-name="Path 37" class="cls-8" d="M42.622,36.178l-5.965,5.965,5.965,5.965" transform="translate(-28.675 -32.001)"/>
          </g>
        </g>
      </g>
      <g transform="translate(0 76)">
        <g id="ListItem-4" data-name="ListItem" transform="translate(0 101)">
          <rect id="Rectangle_4-4" data-name="Rectangle 4" class="cls-1" width="338" height="59"/>
          <g id="Text-4" data-name="Text">
            <text id="Search_result-4" data-name="Search result" class="cls-4" transform="translate(60 12)"><tspan x="0" y="18">Search result</tspan></text>
            <text id="_dennis_tag1_tag2-4" data-name="@dennis #tag1 #tag2" class="cls-5" transform="translate(60 33)"><tspan x="0" y="11">@dennis #tag1 #tag2</tspan></text>
          </g>
          <g id="ICON_Done-4" data-name="ICON_Done" transform="translate(25 16)">
            <g id="Ellipse_10-4" data-name="Ellipse 10" class="cls-6">
              <circle class="cls-11" cx="11" cy="11" r="11"/>
              <circle class="cls-1" cx="11" cy="11" r="10.25"/>
            </g>
          </g>
          <g id="ICON_Arrow-4" data-name="ICON_Arrow" class="cls-7" transform="translate(314.148 34.607) rotate(180)">
            <rect id="Rectangle_22-4" data-name="Rectangle 22" class="cls-1" width="22" height="21"/>
            <path id="Path_37-4" data-name="Path 37" class="cls-8" d="M42.622,36.178l-5.965,5.965,5.965,5.965" transform="translate(-28.675 -32.001)"/>
          </g>
        </g>
      </g>
      <g transform="translate(0 135)">
        <g id="ListItem-5" data-name="ListItem" transform="translate(0 101)">
          <rect id="Rectangle_4-5" data-name="Rectangle 4" class="cls-1" width="338" height="59"/>
          <g id="Text-5" data-name="Text">
            <text id="Search_result-5" data-name="Search result" class="cls-4" transform="translate(60 12)"><tspan x="0" y="18">Search result</tspan></text>
            <text id="_dennis_tag1_tag2-5" data-name="@dennis #tag1 #tag2" class="cls-5" transform="translate(60 33)"><tspan x="0" y="11">@dennis #tag1 #tag2</tspan></text>
          </g>
          <g id="ICON_Done-5" data-name="ICON_Done" transform="translate(25 16)">
            <g id="Ellipse_10-5" data-name="Ellipse 10" class="cls-6">
              <circle class="cls-11" cx="11" cy="11" r="11"/>
              <circle class="cls-1" cx="11" cy="11" r="10.25"/>
            </g>
          </g>
          <g id="ICON_Arrow-5" data-name="ICON_Arrow" class="cls-7" transform="translate(314.148 34.607) rotate(180)">
            <rect id="Rectangle_22-5" data-name="Rectangle 22" class="cls-1" width="22" height="21"/>
            <path id="Path_37-5" data-name="Path 37" class="cls-8" d="M42.622,36.178l-5.965,5.965,5.965,5.965" transform="translate(-28.675 -32.001)"/>
          </g>
        </g>
      </g>
      <g transform="translate(0 194)">
        <g id="ListItem-6" data-name="ListItem" transform="translate(0 101)">
          <rect id="Rectangle_4-6" data-name="Rectangle 4" class="cls-1" width="338" height="59"/>
          <g id="Text-6" data-name="Text">
            <text id="Search_result-6" data-name="Search result" class="cls-4" transform="translate(60 12)"><tspan x="0" y="18">Search result</tspan></text>
            <text id="_dennis_tag1_tag2-6" data-name="@dennis #tag1 #tag2" class="cls-5" transform="translate(60 33)"><tspan x="0" y="11">@dennis #tag1 #tag2</tspan></text>
          </g>
          <g id="ICON_Done-6" data-name="ICON_Done" transform="translate(25 16)">
            <g id="Ellipse_10-6" data-name="Ellipse 10" class="cls-6">
              <circle class="cls-11" cx="11" cy="11" r="11"/>
              <circle class="cls-1" cx="11" cy="11" r="10.25"/>
            </g>
          </g>
          <g id="ICON_Arrow-6" data-name="ICON_Arrow" class="cls-7" transform="translate(314.148 34.607) rotate(180)">
            <rect id="Rectangle_22-6" data-name="Rectangle 22" class="cls-1" width="22" height="21"/>
            <path id="Path_37-6" data-name="Path 37" class="cls-8" d="M42.622,36.178l-5.965,5.965,5.965,5.965" transform="translate(-28.675 -32.001)"/>
          </g>
        </g>
      </g>
      <g transform="translate(0 253)">
        <g id="ListItem-7" data-name="ListItem" transform="translate(0 101)">
          <rect id="Rectangle_4-7" data-name="Rectangle 4" class="cls-1" width="338" height="59"/>
          <g id="Text-7" data-name="Text">
            <text id="Search_result-7" data-name="Search result" class="cls-4" transform="translate(60 12)"><tspan x="0" y="18">Search result</tspan></text>
            <text id="_dennis_tag1_tag2-7" data-name="@dennis #tag1 #tag2" class="cls-5" transform="translate(60 33)"><tspan x="0" y="11">@dennis #tag1 #tag2</tspan></text>
          </g>
          <g id="ICON_Done-7" data-name="ICON_Done" transform="translate(25 16)">
            <g id="Ellipse_10-7" data-name="Ellipse 10" class="cls-6">
              <circle class="cls-11" cx="11" cy="11" r="11"/>
              <circle class="cls-1" cx="11" cy="11" r="10.25"/>
            </g>
          </g>
          <g id="ICON_Arrow-7" data-name="ICON_Arrow" class="cls-7" transform="translate(314.148 34.607) rotate(180)">
            <rect id="Rectangle_22-7" data-name="Rectangle 22" class="cls-1" width="22" height="21"/>
            <path id="Path_37-7" data-name="Path 37" class="cls-8" d="M42.622,36.178l-5.965,5.965,5.965,5.965" transform="translate(-28.675 -32.001)"/>
          </g>
        </g>
      </g>
      <g transform="translate(0 312)">
        <g id="ListItem-8" data-name="ListItem" transform="translate(0 101)">
          <rect id="Rectangle_4-8" data-name="Rectangle 4" class="cls-1" width="338" height="59"/>
          <g id="Text-8" data-name="Text">
            <text id="Search_result-8" data-name="Search result" class="cls-4" transform="translate(60 12)"><tspan x="0" y="18">Search result</tspan></text>
            <text id="_dennis_tag1_tag2-8" data-name="@dennis #tag1 #tag2" class="cls-5" transform="translate(60 33)"><tspan x="0" y="11">@dennis #tag1 #tag2</tspan></text>
          </g>
          <g id="ICON_Done-8" data-name="ICON_Done" transform="translate(25 16)">
            <g id="Ellipse_10-8" data-name="Ellipse 10" class="cls-6">
              <circle class="cls-11" cx="11" cy="11" r="11"/>
              <circle class="cls-1" cx="11" cy="11" r="10.25"/>
            </g>
          </g>
          <g id="ICON_Arrow-8" data-name="ICON_Arrow" class="cls-7" transform="translate(314.148 34.607) rotate(180)">
            <rect id="Rectangle_22-8" data-name="Rectangle 22" class="cls-1" width="22" height="21"/>
            <path id="Path_37-8" data-name="Path 37" class="cls-8" d="M42.622,36.178l-5.965,5.965,5.965,5.965" transform="translate(-28.675 -32.001)"/>
          </g>
        </g>
      </g>
      <g transform="translate(0 371)">
        <g id="ListItem-9" data-name="ListItem" transform="translate(0 101)">
          <rect id="Rectangle_4-9" data-name="Rectangle 4" class="cls-1" width="338" height="59"/>
          <g id="Text-9" data-name="Text">
            <text id="Search_result-9" data-name="Search result" class="cls-4" transform="translate(60 12)"><tspan x="0" y="18">Search result</tspan></text>
            <text id="_dennis_tag1_tag2-9" data-name="@dennis #tag1 #tag2" class="cls-5" transform="translate(60 33)"><tspan x="0" y="11">@dennis #tag1 #tag2</tspan></text>
          </g>
          <g id="ICON_Done-9" data-name="ICON_Done" transform="translate(25 16)">
            <g id="Ellipse_10-9" data-name="Ellipse 10" class="cls-6">
              <circle class="cls-11" cx="11" cy="11" r="11"/>
              <circle class="cls-1" cx="11" cy="11" r="10.25"/>
            </g>
          </g>
          <g id="ICON_Arrow-9" data-name="ICON_Arrow" class="cls-7" transform="translate(314.148 34.607) rotate(180)">
            <rect id="Rectangle_22-9" data-name="Rectangle 22" class="cls-1" width="22" height="21"/>
            <path id="Path_37-9" data-name="Path 37" class="cls-8" d="M42.622,36.178l-5.965,5.965,5.965,5.965" transform="translate(-28.675 -32.001)"/>
          </g>
        </g>
      </g>
      <g transform="translate(0 430)">
        <g id="ListItem-10" data-name="ListItem" transform="translate(0 101)">
          <rect id="Rectangle_4-10" data-name="Rectangle 4" class="cls-1" width="338" height="59"/>
          <g id="Text-10" data-name="Text">
            <text id="Search_result-10" data-name="Search result" class="cls-4" transform="translate(60 12)"><tspan x="0" y="18">Search result</tspan></text>
            <text id="_dennis_tag1_tag2-10" data-name="@dennis #tag1 #tag2" class="cls-5" transform="translate(60 33)"><tspan x="0" y="11">@dennis #tag1 #tag2</tspan></text>
          </g>
          <g id="ICON_Done-10" data-name="ICON_Done" transform="translate(25 16)">
            <g id="Ellipse_10-10" data-name="Ellipse 10" class="cls-6">
              <circle class="cls-11" cx="11" cy="11" r="11"/>
              <circle class="cls-1" cx="11" cy="11" r="10.25"/>
            </g>
          </g>
          <g id="ICON_Arrow-10" data-name="ICON_Arrow" class="cls-7" transform="translate(314.148 34.607) rotate(180)">
            <rect id="Rectangle_22-10" data-name="Rectangle 22" class="cls-1" width="22" height="21"/>
            <path id="Path_37-10" data-name="Path 37" class="cls-8" d="M42.622,36.178l-5.965,5.965,5.965,5.965" transform="translate(-28.675 -32.001)"/>
          </g>
        </g>
      </g>
      <g transform="translate(0 489)">
        <g id="ListItem-11" data-name="ListItem" transform="translate(0 101)">
          <rect id="Rectangle_4-11" data-name="Rectangle 4" class="cls-1" width="338" height="59"/>
          <g id="Text-11" data-name="Text">
            <text id="Search_result-11" data-name="Search result" class="cls-4" transform="translate(60 12)"><tspan x="0" y="18">Search result</tspan></text>
            <text id="_dennis_tag1_tag2-11" data-name="@dennis #tag1 #tag2" class="cls-5" transform="translate(60 33)"><tspan x="0" y="11">@dennis #tag1 #tag2</tspan></text>
          </g>
          <g id="ICON_Done-11" data-name="ICON_Done" transform="translate(25 16)">
            <g id="Ellipse_10-11" data-name="Ellipse 10" class="cls-6">
              <circle class="cls-11" cx="11" cy="11" r="11"/>
              <circle class="cls-1" cx="11" cy="11" r="10.25"/>
            </g>
          </g>
          <g id="ICON_Arrow-11" data-name="ICON_Arrow" class="cls-7" transform="translate(314.148 34.607) rotate(180)">
            <rect id="Rectangle_22-11" data-name="Rectangle 22" class="cls-1" width="22" height="21"/>
            <path id="Path_37-11" data-name="Path 37" class="cls-8" d="M42.622,36.178l-5.965,5.965,5.965,5.965" transform="translate(-28.675 -32.001)"/>
          </g>
        </g>
      </g>
      <g transform="translate(0 548)">
        <g id="ListItem-12" data-name="ListItem" transform="translate(0 101)">
          <rect id="Rectangle_4-12" data-name="Rectangle 4" class="cls-1" width="338" height="59"/>
          <g id="Text-12" data-name="Text">
            <text id="Search_result-12" data-name="Search result" class="cls-4" transform="translate(60 12)"><tspan x="0" y="18">Search result</tspan></text>
            <text id="_dennis_tag1_tag2-12" data-name="@dennis #tag1 #tag2" class="cls-5" transform="translate(60 33)"><tspan x="0" y="11">@dennis #tag1 #tag2</tspan></text>
          </g>
          <g id="ICON_Done-12" data-name="ICON_Done" transform="translate(25 16)">
            <g id="Ellipse_10-12" data-name="Ellipse 10" class="cls-6">
              <circle class="cls-11" cx="11" cy="11" r="11"/>
              <circle class="cls-1" cx="11" cy="11" r="10.25"/>
            </g>
          </g>
          <g id="ICON_Arrow-12" data-name="ICON_Arrow" class="cls-7" transform="translate(314.148 34.607) rotate(180)">
            <rect id="Rectangle_22-12" data-name="Rectangle 22" class="cls-1" width="22" height="21"/>
            <path id="Path_37-12" data-name="Path 37" class="cls-8" d="M42.622,36.178l-5.965,5.965,5.965,5.965" transform="translate(-28.675 -32.001)"/>
          </g>
        </g>
      </g>
      <g transform="translate(0 607)">
        <g id="ListItem-13" data-name="ListItem" transform="translate(0 101)">
          <rect id="Rectangle_4-13" data-name="Rectangle 4" class="cls-1" width="338" height="59"/>
          <g id="Text-13" data-name="Text">
            <text id="Search_result-13" data-name="Search result" class="cls-4" transform="translate(60 12)"><tspan x="0" y="18">Search result</tspan></text>
            <text id="_dennis_tag1_tag2-13" data-name="@dennis #tag1 #tag2" class="cls-5" transform="translate(60 33)"><tspan x="0" y="11">@dennis #tag1 #tag2</tspan></text>
          </g>
          <g id="ICON_Done-13" data-name="ICON_Done" transform="translate(25 16)">
            <g id="Ellipse_10-13" data-name="Ellipse 10" class="cls-6">
              <circle class="cls-11" cx="11" cy="11" r="11"/>
              <circle class="cls-1" cx="11" cy="11" r="10.25"/>
            </g>
          </g>
          <g id="ICON_Arrow-13" data-name="ICON_Arrow" class="cls-7" transform="translate(314.148 34.607) rotate(180)">
            <rect id="Rectangle_22-13" data-name="Rectangle 22" class="cls-1" width="22" height="21"/>
            <path id="Path_37-13" data-name="Path 37" class="cls-8" d="M42.622,36.178l-5.965,5.965,5.965,5.965" transform="translate(-28.675 -32.001)"/>
          </g>
        </g>
      </g>
      <g transform="translate(0 666)">
        <g id="ListItem-14" data-name="ListItem" transform="translate(0 101)">
          <rect id="Rectangle_4-14" data-name="Rectangle 4" class="cls-1" width="338" height="59"/>
          <g id="Text-14" data-name="Text">
            <text id="Search_result-14" data-name="Search result" class="cls-4" transform="translate(60 12)"><tspan x="0" y="18">Search result</tspan></text>
            <text id="_dennis_tag1_tag2-14" data-name="@dennis #tag1 #tag2" class="cls-5" transform="translate(60 33)"><tspan x="0" y="11">@dennis #tag1 #tag2</tspan></text>
          </g>
          <g id="ICON_Done-14" data-name="ICON_Done" transform="translate(25 16)">
            <g id="Ellipse_10-14" data-name="Ellipse 10" class="cls-6">
              <circle class="cls-11" cx="11" cy="11" r="11"/>
              <circle class="cls-1" cx="11" cy="11" r="10.25"/>
            </g>
          </g>
          <g id="ICON_Arrow-14" data-name="ICON_Arrow" class="cls-7" transform="translate(314.148 34.607) rotate(180)">
            <rect id="Rectangle_22-14" data-name="Rectangle 22" class="cls-1" width="22" height="21"/>
            <path id="Path_37-14" data-name="Path 37" class="cls-8" d="M42.622,36.178l-5.965,5.965,5.965,5.965" transform="translate(-28.675 -32.001)"/>
          </g>
        </g>
      </g>
      <g transform="translate(0 725)">
        <g id="ListItem-15" data-name="ListItem" transform="translate(0 101)">
          <rect id="Rectangle_4-15" data-name="Rectangle 4" class="cls-1" width="338" height="59"/>
          <g id="Text-15" data-name="Text">
            <text id="Search_result-15" data-name="Search result" class="cls-4" transform="translate(60 12)"><tspan x="0" y="18">Search result</tspan></text>
            <text id="_dennis_tag1_tag2-15" data-name="@dennis #tag1 #tag2" class="cls-5" transform="translate(60 33)"><tspan x="0" y="11">@dennis #tag1 #tag2</tspan></text>
          </g>
          <g id="ICON_Done-15" data-name="ICON_Done" transform="translate(25 16)">
            <g id="Ellipse_10-15" data-name="Ellipse 10" class="cls-6">
              <circle class="cls-11" cx="11" cy="11" r="11"/>
              <circle class="cls-1" cx="11" cy="11" r="10.25"/>
            </g>
          </g>
          <g id="ICON_Arrow-15" data-name="ICON_Arrow" class="cls-7" transform="translate(314.148 34.607) rotate(180)">
            <rect id="Rectangle_22-15" data-name="Rectangle 22" class="cls-1" width="22" height="21"/>
            <path id="Path_37-15" data-name="Path 37" class="cls-8" d="M42.622,36.178l-5.965,5.965,5.965,5.965" transform="translate(-28.675 -32.001)"/>
          </g>
        </g>
      </g>
      <g transform="translate(0 784)">
        <g id="ListItem-16" data-name="ListItem" transform="translate(0 101)">
          <rect id="Rectangle_4-16" data-name="Rectangle 4" class="cls-1" width="338" height="59"/>
          <g id="Text-16" data-name="Text">
            <text id="Search_result-16" data-name="Search result" class="cls-4" transform="translate(60 12)"><tspan x="0" y="18">Search result</tspan></text>
            <text id="_dennis_tag1_tag2-16" data-name="@dennis #tag1 #tag2" class="cls-5" transform="translate(60 33)"><tspan x="0" y="11">@dennis #tag1 #tag2</tspan></text>
          </g>
          <g id="ICON_Done-16" data-name="ICON_Done" transform="translate(25 16)">
            <g id="Ellipse_10-16" data-name="Ellipse 10" class="cls-6">
              <circle class="cls-11" cx="11" cy="11" r="11"/>
              <circle class="cls-1" cx="11" cy="11" r="10.25"/>
            </g>
          </g>
          <g id="ICON_Arrow-16" data-name="ICON_Arrow" class="cls-7" transform="translate(314.148 34.607) rotate(180)">
            <rect id="Rectangle_22-16" data-name="Rectangle 22" class="cls-1" width="22" height="21"/>
            <path id="Path_37-16" data-name="Path 37" class="cls-8" d="M42.622,36.178l-5.965,5.965,5.965,5.965" transform="translate(-28.675 -32.001)"/>
          </g>
        </g>
      </g>
      <g transform="translate(0 843)">
        <g id="ListItem-17" data-name="ListItem" transform="translate(0 101)">
          <rect id="Rectangle_4-17" data-name="Rectangle 4" class="cls-1" width="338" height="59"/>
          <g id="Text-17" data-name="Text">
            <text id="Search_result-17" data-name="Search result" class="cls-4" transform="translate(60 12)"><tspan x="0" y="18">Search result</tspan></text>
            <text id="_dennis_tag1_tag2-17" data-name="@dennis #tag1 #tag2" class="cls-5" transform="translate(60 33)"><tspan x="0" y="11">@dennis #tag1 #tag2</tspan></text>
          </g>
          <g id="ICON_Done-17" data-name="ICON_Done" transform="translate(25 16)">
            <g id="Ellipse_10-17" data-name="Ellipse 10" class="cls-6">
              <circle class="cls-11" cx="11" cy="11" r="11"/>
              <circle class="cls-1" cx="11" cy="11" r="10.25"/>
            </g>
          </g>
          <g id="ICON_Arrow-17" data-name="ICON_Arrow" class="cls-7" transform="translate(314.148 34.607) rotate(180)">
            <rect id="Rectangle_22-17" data-name="Rectangle 22" class="cls-1" width="22" height="21"/>
            <path id="Path_37-17" data-name="Path 37" class="cls-8" d="M42.622,36.178l-5.965,5.965,5.965,5.965" transform="translate(-28.675 -32.001)"/>
          </g>
        </g>
      </g>
      <g transform="translate(0 902)">
        <g id="ListItem-18" data-name="ListItem" transform="translate(0 101)">
          <rect id="Rectangle_4-18" data-name="Rectangle 4" class="cls-1" width="338" height="59"/>
          <g id="Text-18" data-name="Text">
            <text id="Search_result-18" data-name="Search result" class="cls-4" transform="translate(60 12)"><tspan x="0" y="18">Search result</tspan></text>
            <text id="_dennis_tag1_tag2-18" data-name="@dennis #tag1 #tag2" class="cls-5" transform="translate(60 33)"><tspan x="0" y="11">@dennis #tag1 #tag2</tspan></text>
          </g>
          <g id="ICON_Done-18" data-name="ICON_Done" transform="translate(25 16)">
            <g id="Ellipse_10-18" data-name="Ellipse 10" class="cls-6">
              <circle class="cls-11" cx="11" cy="11" r="11"/>
              <circle class="cls-1" cx="11" cy="11" r="10.25"/>
            </g>
          </g>
          <g id="ICON_Arrow-18" data-name="ICON_Arrow" class="cls-7" transform="translate(314.148 34.607) rotate(180)">
            <rect id="Rectangle_22-18" data-name="Rectangle 22" class="cls-1" width="22" height="21"/>
            <path id="Path_37-18" data-name="Path 37" class="cls-8" d="M42.622,36.178l-5.965,5.965,5.965,5.965" transform="translate(-28.675 -32.001)"/>
          </g>
        </g>
      </g>
    </g>
    <g id="MoveDown">
      <rect id="Rectangle_1" data-name="Rectangle 1" class="cls-9" width="338" height="70"/>
      <g id="Repeat_Grid_13" data-name="Repeat Grid 13" class="cls-10" transform="translate(30 27)">
        <g id="Group_27" data-name="Group 27" transform="translate(-30 -27)">
          <text id="Search_" data-name="Search … |" class="cls-4" transform="translate(30 45)"><tspan x="0" y="0">Search … |</tspan></text>
        </g>
      </g>
    </g>
  </g>
</svg>
